M48
; DRILL file {KiCad (5.1.6)-1} date 08/17/20 15:22:42
; FORMAT={-:-/ absolute / inch / decimal}
; #@! TF.CreationDate,2020-08-17T15:22:42+07:00
; #@! TF.GenerationSoftware,Kicad,Pcbnew,(5.1.6)-1
; #@! TF.FileFunction,Plated,1,2,PTH
FMAT,2
INCH
T1C0.0150
T2C0.0236
T3C0.0315
T4C0.0354
T5C0.0433
T6C0.0472
%
G90
G05
T1
X3.8865Y-2.8267
X3.8865Y-3.3533
X3.8865Y-3.9933
X3.89Y-3.68
X4.03Y-2.83
X4.04Y-2.7
X4.0743Y-3.96
X4.1Y-3.37
X4.15Y-4.0
X4.19Y-2.99
X4.19Y-3.19
X4.19Y-3.6207
X4.19Y-3.85
X4.19Y-3.93
X4.2Y-2.82
X4.2Y-3.79
X4.26Y-3.1
X4.29Y-3.0
X4.29Y-3.96
X4.33Y-2.74
X4.36Y-3.23
X4.4193Y-3.44
X4.45Y-2.93
X4.49Y-4.07
X4.52Y-3.79
X4.61Y-3.05
X4.78Y-3.45
X4.875Y-3.66
X4.88Y-2.91
X4.88Y-3.26
X5.11Y-2.57
X5.175Y-3.405
X5.25Y-3.61
X5.2504Y-3.22
X5.26Y-3.03
X5.34Y-2.98
X5.345Y-2.88
X5.43Y-3.81
X5.44Y-3.34
X5.456Y-2.6609
X5.456Y-2.7791
X5.456Y-2.9562
X5.46Y-2.54
X5.46Y-2.9
X5.55Y-2.75
X5.57Y-3.58
X5.58Y-2.56
X5.59Y-2.71
X5.6Y-3.04
X5.61Y-3.2404
X5.65Y-2.955
X5.7Y-3.12
X5.71Y-3.21
X5.7162Y-3.2912
X5.77Y-3.19
X5.7789Y-3.4111
X5.78Y-3.52
X5.8193Y-3.5118
X5.8693Y-3.56
X5.93Y-3.12
X5.94Y-3.415
X5.95Y-3.56
X5.9775Y-3.1625
X6.0Y-3.22
X6.01Y-3.78
X6.0235Y-3.7305
X6.05Y-2.73
X6.05Y-2.85
X6.05Y-3.22
X6.0556Y-3.3656
X6.06Y-3.32
X6.08Y-3.12
X6.1275Y-3.34
X6.13Y-3.38
X6.13Y-3.5325
X6.14Y-3.23
X6.1422Y-3.8701
X6.15Y-3.28
X6.18Y-3.33
X6.1832Y-2.62
X6.1851Y-2.5809
X6.196Y-3.818
X6.2197Y-3.13
X6.22Y-3.46
X6.222Y-2.574
X6.222Y-2.722
X6.23Y-3.32
X6.24Y-3.63
X6.26Y-2.58
X6.26Y-2.62
X6.2813Y-3.1374
X6.2913Y-2.8774
X6.32Y-3.57
X6.33Y-3.19
X6.3993Y-3.56
X6.41Y-3.14
X6.44Y-3.45
X6.54Y-3.18
X6.552Y-2.942
X6.6107Y-3.08
X6.63Y-2.54
X6.65Y-2.95
X6.6775Y-2.9815
X6.6884Y-2.8973
X6.705Y-3.55
X6.71Y-2.8
X6.7725Y-3.1018
X6.786Y-3.728
X6.84Y-3.42
X6.85Y-2.64
X6.88Y-2.51
X6.882Y-3.004
X6.9Y-2.69
X6.94Y-3.3593
X6.94Y-3.44
X6.94Y-3.53
X6.94Y-3.93
X6.95Y-2.88
X7.01Y-3.31
X7.01Y-3.49
X7.01Y-3.8207
X7.03Y-2.82
X7.0376Y-2.6218
X7.07Y-3.114
X7.12Y-3.81
X7.16Y-3.02
X7.16Y-3.2196
X7.2Y-2.84
X7.306Y-3.11
X7.342Y-2.904
X7.42Y-2.73
X7.488Y-3.752
T2
X5.18Y-4.08
X5.3217Y-4.08
X5.4635Y-4.08
X5.6052Y-4.08
X5.7469Y-4.08
X7.46Y-2.87
X3.8Y-2.6
X3.9417Y-2.6
X4.0835Y-2.6
X4.2252Y-2.6
X7.46Y-3.05
X6.79Y-4.23
X6.9317Y-4.23
X7.0735Y-4.23
X7.2152Y-4.23
X7.3569Y-4.23
X7.4987Y-4.23
X5.18Y-4.23
X5.3217Y-4.23
X5.4635Y-4.23
X5.6052Y-4.23
X5.7469Y-4.23
T3
X4.72Y-2.9
X4.72Y-3.0
X4.72Y-3.1
X4.72Y-3.2
X4.72Y-3.3
X4.72Y-3.4
X4.72Y-3.5
X4.72Y-3.6
X4.72Y-3.7
X4.72Y-3.8
X4.72Y-3.9
X4.72Y-4.0
X4.72Y-4.1
X4.72Y-4.2
X5.02Y-2.9
X5.02Y-3.0
X5.02Y-3.1
X5.02Y-3.2
X5.02Y-3.3
X5.02Y-3.4
X5.02Y-3.5
X5.02Y-3.6
X5.02Y-3.7
X5.02Y-3.8
X5.02Y-3.9
X5.02Y-4.0
X5.02Y-4.1
X5.02Y-4.2
X4.45Y-3.7071
X4.45Y-3.9
T5
X7.23Y-3.95
X7.33Y-3.95
X7.43Y-3.95
T6
X7.25Y-3.57
X7.35Y-3.57
X7.45Y-3.57
T4
G00X6.0556Y-3.9469
M15
G01X6.0556Y-4.0098
M16
G05
G00X6.5044Y-3.9469
M15
G01X6.5044Y-4.0098
M16
G05
T0
M30
