%TF.GenerationSoftware,KiCad,Pcbnew,(5.1.6)-1*%
%TF.CreationDate,2020-08-17T15:22:46+07:00*%
%TF.ProjectId,desain150820,64657361-696e-4313-9530-3832302e6b69,v01*%
%TF.SameCoordinates,Original*%
%TF.FileFunction,Legend,Top*%
%TF.FilePolarity,Positive*%
%FSLAX46Y46*%
G04 Gerber Fmt 4.6, Leading zero omitted, Abs format (unit mm)*
G04 Created by KiCad (PCBNEW (5.1.6)-1) date 2020-08-17 15:22:46*
%MOMM*%
%LPD*%
G01*
G04 APERTURE LIST*
%ADD10C,0.100000*%
%ADD11C,0.120000*%
%ADD12C,0.150000*%
%ADD13C,0.015000*%
G04 APERTURE END LIST*
D10*
%TO.C,ESP1*%
X138200000Y-62188000D02*
X136320000Y-62188000D01*
X138200000Y-55868000D02*
X138200000Y-62188000D01*
X156440000Y-55868000D02*
X156440000Y-62388000D01*
X138200000Y-55868000D02*
X156440000Y-55868000D01*
X155320000Y-76108000D02*
X156440000Y-76108000D01*
X156440000Y-75788000D02*
X156440000Y-76088000D01*
X138200000Y-76108000D02*
X139220000Y-76108000D01*
X138200000Y-75888000D02*
X138200000Y-76108000D01*
D11*
%TO.C,R22*%
X178055748Y-64060000D02*
X178578252Y-64060000D01*
X178055748Y-65480000D02*
X178578252Y-65480000D01*
%TO.C,R21*%
X177275748Y-72950000D02*
X177798252Y-72950000D01*
X177275748Y-74370000D02*
X177798252Y-74370000D01*
%TO.C,R20*%
X177344000Y-96282252D02*
X177344000Y-95759748D01*
X178764000Y-96282252D02*
X178764000Y-95759748D01*
%TO.C,MCU1*%
X124698000Y-108010000D02*
X126348000Y-108010000D01*
X126348000Y-108010000D02*
X126348000Y-72330000D01*
X126348000Y-72330000D02*
X121048000Y-72330000D01*
X121048000Y-72330000D02*
X121048000Y-108010000D01*
X121048000Y-108010000D02*
X122698000Y-108010000D01*
X122698000Y-108010000D02*
G75*
G02*
X124698000Y-108010000I1000000J0D01*
G01*
%TO.C,Y1*%
X110505000Y-99735000D02*
X110505000Y-93485000D01*
X115555000Y-99735000D02*
X115555000Y-93485000D01*
X115555000Y-99735000D02*
G75*
G02*
X110505000Y-99735000I-2525000J0D01*
G01*
X115555000Y-93485000D02*
G75*
G03*
X110505000Y-93485000I-2525000J0D01*
G01*
%TO.C,U3*%
X188033000Y-97060000D02*
X188033000Y-98570000D01*
X184332000Y-97060000D02*
X184332000Y-98570000D01*
X181062000Y-98570000D02*
X191302000Y-98570000D01*
X191302000Y-97060000D02*
X191302000Y-101701000D01*
X181062000Y-97060000D02*
X181062000Y-101701000D01*
X181062000Y-101701000D02*
X191302000Y-101701000D01*
X181062000Y-97060000D02*
X191302000Y-97060000D01*
%TO.C,SW7*%
X125575000Y-64024000D02*
X124650000Y-64024000D01*
X129450000Y-66149000D02*
X129450000Y-65599000D01*
X124550000Y-66149000D02*
X124550000Y-65599000D01*
X129350000Y-67724000D02*
X124650000Y-67724000D01*
X129350000Y-64024000D02*
X128425000Y-64024000D01*
%TO.C,R19*%
X176023748Y-69036000D02*
X176546252Y-69036000D01*
X176023748Y-67616000D02*
X176546252Y-67616000D01*
%TO.C,R18*%
X166625748Y-78942000D02*
X167148252Y-78942000D01*
X166625748Y-77522000D02*
X167148252Y-77522000D01*
%TO.C,Q2*%
X161304000Y-80320000D02*
X159844000Y-80320000D01*
X161304000Y-77160000D02*
X159144000Y-77160000D01*
X161304000Y-77160000D02*
X161304000Y-78090000D01*
X161304000Y-80320000D02*
X161304000Y-79390000D01*
%TO.C,Q1*%
X161558000Y-73716000D02*
X160098000Y-73716000D01*
X161558000Y-70556000D02*
X159398000Y-70556000D01*
X161558000Y-70556000D02*
X161558000Y-71486000D01*
X161558000Y-73716000D02*
X161558000Y-72786000D01*
%TO.C,C16*%
X166353748Y-73354000D02*
X166876252Y-73354000D01*
X166353748Y-71934000D02*
X166876252Y-71934000D01*
%TO.C,C1*%
X113740000Y-82058252D02*
X113740000Y-81535748D01*
X112320000Y-82058252D02*
X112320000Y-81535748D01*
%TO.C,C2*%
X113031748Y-106628000D02*
X113554252Y-106628000D01*
X113031748Y-105208000D02*
X113554252Y-105208000D01*
%TO.C,C3*%
X113013748Y-86666000D02*
X113536252Y-86666000D01*
X113013748Y-88086000D02*
X113536252Y-88086000D01*
%TO.C,C4*%
X132063748Y-85904000D02*
X132586252Y-85904000D01*
X132063748Y-87324000D02*
X132586252Y-87324000D01*
%TO.C,C5*%
X132072748Y-81078000D02*
X132595252Y-81078000D01*
X132072748Y-82498000D02*
X132595252Y-82498000D01*
%TO.C,C6*%
X175566000Y-90948252D02*
X175566000Y-90425748D01*
X176986000Y-90948252D02*
X176986000Y-90425748D01*
%TO.C,C7*%
X173176000Y-96019252D02*
X173176000Y-95496748D01*
X171756000Y-96019252D02*
X171756000Y-95496748D01*
%TO.C,C8*%
X168639748Y-85292000D02*
X169162252Y-85292000D01*
X168639748Y-83872000D02*
X169162252Y-83872000D01*
%TO.C,C9*%
X134866748Y-65979000D02*
X135389252Y-65979000D01*
X134866748Y-64559000D02*
X135389252Y-64559000D01*
%TO.C,C10*%
X168893748Y-89460000D02*
X169416252Y-89460000D01*
X168893748Y-90880000D02*
X169416252Y-90880000D01*
%TO.C,C11*%
X135120748Y-69403000D02*
X135643252Y-69403000D01*
X135120748Y-70823000D02*
X135643252Y-70823000D01*
%TO.C,C12*%
X175566000Y-86089748D02*
X175566000Y-86612252D01*
X176986000Y-86089748D02*
X176986000Y-86612252D01*
%TO.C,C13*%
X175566000Y-82294252D02*
X175566000Y-81771748D01*
X176986000Y-82294252D02*
X176986000Y-81771748D01*
%TO.C,C14*%
X181154000Y-83065252D02*
X181154000Y-82542748D01*
X182574000Y-83065252D02*
X182574000Y-82542748D01*
%TO.C,C15*%
X182574000Y-77994252D02*
X182574000Y-77471748D01*
X181154000Y-77994252D02*
X181154000Y-77471748D01*
%TO.C,D1*%
X141788000Y-96184000D02*
X141788000Y-99044000D01*
X143708000Y-96184000D02*
X141788000Y-96184000D01*
X143708000Y-99044000D02*
X143708000Y-96184000D01*
%TO.C,D2*%
X146868000Y-97035000D02*
X146868000Y-99895000D01*
X146868000Y-99895000D02*
X148788000Y-99895000D01*
X148788000Y-99895000D02*
X148788000Y-97035000D01*
%TO.C,D3*%
X181617000Y-66238000D02*
X184477000Y-66238000D01*
X184477000Y-66238000D02*
X184477000Y-64318000D01*
X184477000Y-64318000D02*
X181617000Y-64318000D01*
%TO.C,D5*%
X137326000Y-87352000D02*
X139026000Y-87352000D01*
X139026000Y-87352000D02*
X139026000Y-84802000D01*
X137326000Y-87352000D02*
X137326000Y-84802000D01*
%TO.C,J1*%
X163912000Y-99930000D02*
X155112000Y-99930000D01*
X165657000Y-103100000D02*
X165657000Y-104150000D01*
X153367000Y-103100000D02*
X153367000Y-104150000D01*
X163912000Y-99930000D02*
X163912000Y-99175000D01*
%TO.C,R1*%
X113740000Y-75708252D02*
X113740000Y-75185748D01*
X112320000Y-75708252D02*
X112320000Y-75185748D01*
%TO.C,R2*%
X158240252Y-85650000D02*
X157717748Y-85650000D01*
X158240252Y-87070000D02*
X157717748Y-87070000D01*
%TO.C,R3*%
X157986252Y-92912000D02*
X157463748Y-92912000D01*
X157986252Y-91492000D02*
X157463748Y-91492000D01*
%TO.C,R4*%
X149843748Y-89714000D02*
X150366252Y-89714000D01*
X149843748Y-91134000D02*
X150366252Y-91134000D01*
%TO.C,R5*%
X133298000Y-98060252D02*
X133298000Y-97537748D01*
X131878000Y-98060252D02*
X131878000Y-97537748D01*
%TO.C,R6*%
X137212000Y-98060252D02*
X137212000Y-97537748D01*
X138632000Y-98060252D02*
X138632000Y-97537748D01*
%TO.C,R7*%
X182624252Y-69798000D02*
X182101748Y-69798000D01*
X182624252Y-68378000D02*
X182101748Y-68378000D01*
%TO.C,R8*%
X143204000Y-81541252D02*
X143204000Y-81018748D01*
X141784000Y-81541252D02*
X141784000Y-81018748D01*
%TO.C,R9*%
X161238000Y-67072252D02*
X161238000Y-66549748D01*
X159818000Y-67072252D02*
X159818000Y-66549748D01*
%TO.C,R10*%
X132317748Y-76252000D02*
X132840252Y-76252000D01*
X132317748Y-77672000D02*
X132840252Y-77672000D01*
%TO.C,R11*%
X132063748Y-90984000D02*
X132586252Y-90984000D01*
X132063748Y-92404000D02*
X132586252Y-92404000D01*
%TO.C,R12*%
X107136000Y-99076252D02*
X107136000Y-98553748D01*
X105716000Y-99076252D02*
X105716000Y-98553748D01*
%TO.C,R13*%
X107136000Y-74659748D02*
X107136000Y-75182252D01*
X105716000Y-74659748D02*
X105716000Y-75182252D01*
%TO.C,R14*%
X107136000Y-82312252D02*
X107136000Y-81789748D01*
X105716000Y-82312252D02*
X105716000Y-81789748D01*
%TO.C,R15*%
X105716000Y-91202252D02*
X105716000Y-90679748D01*
X107136000Y-91202252D02*
X107136000Y-90679748D01*
%TO.C,R16*%
X163051748Y-85292000D02*
X163574252Y-85292000D01*
X163051748Y-83872000D02*
X163574252Y-83872000D01*
%TO.C,R17*%
X163305748Y-89714000D02*
X163828252Y-89714000D01*
X163305748Y-91134000D02*
X163828252Y-91134000D01*
%TO.C,RU1*%
X167842000Y-96019252D02*
X167842000Y-95496748D01*
X166422000Y-96019252D02*
X166422000Y-95496748D01*
%TO.C,SW1*%
X116142000Y-64190000D02*
X115217000Y-64190000D01*
X116142000Y-67890000D02*
X111442000Y-67890000D01*
X111342000Y-66315000D02*
X111342000Y-65765000D01*
X116242000Y-66315000D02*
X116242000Y-65765000D01*
X112367000Y-64190000D02*
X111442000Y-64190000D01*
%TO.C,SW2*%
X166977000Y-64444000D02*
X166052000Y-64444000D01*
X170852000Y-66569000D02*
X170852000Y-66019000D01*
X165952000Y-66569000D02*
X165952000Y-66019000D01*
X170752000Y-68144000D02*
X166052000Y-68144000D01*
X170752000Y-64444000D02*
X169827000Y-64444000D01*
%TO.C,SW3*%
X97718000Y-72072000D02*
X97718000Y-72997000D01*
X101418000Y-72072000D02*
X101418000Y-76772000D01*
X99843000Y-76872000D02*
X99293000Y-76872000D01*
X99843000Y-71972000D02*
X99293000Y-71972000D01*
X97718000Y-75847000D02*
X97718000Y-76772000D01*
%TO.C,SW4*%
X97718000Y-83975000D02*
X97718000Y-84900000D01*
X99843000Y-80100000D02*
X99293000Y-80100000D01*
X99843000Y-85000000D02*
X99293000Y-85000000D01*
X101418000Y-80200000D02*
X101418000Y-84900000D01*
X97718000Y-80200000D02*
X97718000Y-81125000D01*
%TO.C,SW5*%
X97718000Y-88328000D02*
X97718000Y-89253000D01*
X101418000Y-88328000D02*
X101418000Y-93028000D01*
X99843000Y-93128000D02*
X99293000Y-93128000D01*
X99843000Y-88228000D02*
X99293000Y-88228000D01*
X97718000Y-92103000D02*
X97718000Y-93028000D01*
%TO.C,SW6*%
X97718000Y-100231000D02*
X97718000Y-101156000D01*
X99843000Y-96356000D02*
X99293000Y-96356000D01*
X99843000Y-101256000D02*
X99293000Y-101256000D01*
X101418000Y-96456000D02*
X101418000Y-101156000D01*
X97718000Y-96456000D02*
X97718000Y-97381000D01*
%TO.C,U1*%
X191940000Y-93846000D02*
X181440000Y-93846000D01*
X191940000Y-88905000D02*
X181440000Y-88905000D01*
X191940000Y-93846000D02*
X191940000Y-88905000D01*
X181440000Y-93846000D02*
X181440000Y-88905000D01*
X191940000Y-91086000D02*
X190333000Y-91086000D01*
X188127000Y-91086000D02*
X187792000Y-91086000D01*
X185587000Y-91086000D02*
X185252000Y-91086000D01*
X183047000Y-91086000D02*
X181440000Y-91086000D01*
X188540000Y-93846000D02*
X188540000Y-91828000D01*
X184839000Y-93846000D02*
X184839000Y-91828000D01*
%TO.C,USB-UART1*%
X152003000Y-81710000D02*
X152478000Y-81710000D01*
X152478000Y-81710000D02*
X152478000Y-82185000D01*
X148733000Y-85930000D02*
X148258000Y-85930000D01*
X148258000Y-85930000D02*
X148258000Y-85455000D01*
X152003000Y-85930000D02*
X152478000Y-85930000D01*
X152478000Y-85930000D02*
X152478000Y-85455000D01*
X148733000Y-81710000D02*
X148258000Y-81710000D01*
%TO.C,J2*%
D12*
X101586666Y-63492380D02*
X101586666Y-64206666D01*
X101539047Y-64349523D01*
X101443809Y-64444761D01*
X101300952Y-64492380D01*
X101205714Y-64492380D01*
X102015238Y-63587619D02*
X102062857Y-63540000D01*
X102158095Y-63492380D01*
X102396190Y-63492380D01*
X102491428Y-63540000D01*
X102539047Y-63587619D01*
X102586666Y-63682857D01*
X102586666Y-63778095D01*
X102539047Y-63920952D01*
X101967619Y-64492380D01*
X102586666Y-64492380D01*
%TO.C,ESP1*%
X137078571Y-75884666D02*
X137078571Y-75551333D01*
X137602380Y-75408476D02*
X137602380Y-75884666D01*
X136602380Y-75884666D01*
X136602380Y-75408476D01*
X137554761Y-75027523D02*
X137602380Y-74884666D01*
X137602380Y-74646571D01*
X137554761Y-74551333D01*
X137507142Y-74503714D01*
X137411904Y-74456095D01*
X137316666Y-74456095D01*
X137221428Y-74503714D01*
X137173809Y-74551333D01*
X137126190Y-74646571D01*
X137078571Y-74837047D01*
X137030952Y-74932285D01*
X136983333Y-74979904D01*
X136888095Y-75027523D01*
X136792857Y-75027523D01*
X136697619Y-74979904D01*
X136650000Y-74932285D01*
X136602380Y-74837047D01*
X136602380Y-74598952D01*
X136650000Y-74456095D01*
X137602380Y-74027523D02*
X136602380Y-74027523D01*
X136602380Y-73646571D01*
X136650000Y-73551333D01*
X136697619Y-73503714D01*
X136792857Y-73456095D01*
X136935714Y-73456095D01*
X137030952Y-73503714D01*
X137078571Y-73551333D01*
X137126190Y-73646571D01*
X137126190Y-74027523D01*
X137602380Y-72503714D02*
X137602380Y-73075142D01*
X137602380Y-72789428D02*
X136602380Y-72789428D01*
X136745238Y-72884666D01*
X136840476Y-72979904D01*
X136888095Y-73075142D01*
%TO.C,D4*%
D13*
X153248474Y-94153675D02*
X153248474Y-93673130D01*
X153362889Y-93673130D01*
X153431538Y-93696013D01*
X153477304Y-93741779D01*
X153500188Y-93787545D01*
X153523071Y-93879078D01*
X153523071Y-93947727D01*
X153500188Y-94039259D01*
X153477304Y-94085026D01*
X153431538Y-94130792D01*
X153362889Y-94153675D01*
X153248474Y-94153675D01*
X153934966Y-93833312D02*
X153934966Y-94153675D01*
X153820551Y-93650247D02*
X153706135Y-93993493D01*
X154003616Y-93993493D01*
%TO.C,R22*%
D12*
X177674142Y-63572380D02*
X177340809Y-63096190D01*
X177102714Y-63572380D02*
X177102714Y-62572380D01*
X177483666Y-62572380D01*
X177578904Y-62620000D01*
X177626523Y-62667619D01*
X177674142Y-62762857D01*
X177674142Y-62905714D01*
X177626523Y-63000952D01*
X177578904Y-63048571D01*
X177483666Y-63096190D01*
X177102714Y-63096190D01*
X178055095Y-62667619D02*
X178102714Y-62620000D01*
X178197952Y-62572380D01*
X178436047Y-62572380D01*
X178531285Y-62620000D01*
X178578904Y-62667619D01*
X178626523Y-62762857D01*
X178626523Y-62858095D01*
X178578904Y-63000952D01*
X178007476Y-63572380D01*
X178626523Y-63572380D01*
X179007476Y-62667619D02*
X179055095Y-62620000D01*
X179150333Y-62572380D01*
X179388428Y-62572380D01*
X179483666Y-62620000D01*
X179531285Y-62667619D01*
X179578904Y-62762857D01*
X179578904Y-62858095D01*
X179531285Y-63000952D01*
X178959857Y-63572380D01*
X179578904Y-63572380D01*
%TO.C,R21*%
X176894142Y-72462380D02*
X176560809Y-71986190D01*
X176322714Y-72462380D02*
X176322714Y-71462380D01*
X176703666Y-71462380D01*
X176798904Y-71510000D01*
X176846523Y-71557619D01*
X176894142Y-71652857D01*
X176894142Y-71795714D01*
X176846523Y-71890952D01*
X176798904Y-71938571D01*
X176703666Y-71986190D01*
X176322714Y-71986190D01*
X177275095Y-71557619D02*
X177322714Y-71510000D01*
X177417952Y-71462380D01*
X177656047Y-71462380D01*
X177751285Y-71510000D01*
X177798904Y-71557619D01*
X177846523Y-71652857D01*
X177846523Y-71748095D01*
X177798904Y-71890952D01*
X177227476Y-72462380D01*
X177846523Y-72462380D01*
X178798904Y-72462380D02*
X178227476Y-72462380D01*
X178513190Y-72462380D02*
X178513190Y-71462380D01*
X178417952Y-71605238D01*
X178322714Y-71700476D01*
X178227476Y-71748095D01*
%TO.C,R20*%
X176856380Y-96663857D02*
X176380190Y-96997190D01*
X176856380Y-97235285D02*
X175856380Y-97235285D01*
X175856380Y-96854333D01*
X175904000Y-96759095D01*
X175951619Y-96711476D01*
X176046857Y-96663857D01*
X176189714Y-96663857D01*
X176284952Y-96711476D01*
X176332571Y-96759095D01*
X176380190Y-96854333D01*
X176380190Y-97235285D01*
X175951619Y-96282904D02*
X175904000Y-96235285D01*
X175856380Y-96140047D01*
X175856380Y-95901952D01*
X175904000Y-95806714D01*
X175951619Y-95759095D01*
X176046857Y-95711476D01*
X176142095Y-95711476D01*
X176284952Y-95759095D01*
X176856380Y-96330523D01*
X176856380Y-95711476D01*
X175856380Y-95092428D02*
X175856380Y-94997190D01*
X175904000Y-94901952D01*
X175951619Y-94854333D01*
X176046857Y-94806714D01*
X176237333Y-94759095D01*
X176475428Y-94759095D01*
X176665904Y-94806714D01*
X176761142Y-94854333D01*
X176808761Y-94901952D01*
X176856380Y-94997190D01*
X176856380Y-95092428D01*
X176808761Y-95187666D01*
X176761142Y-95235285D01*
X176665904Y-95282904D01*
X176475428Y-95330523D01*
X176237333Y-95330523D01*
X176046857Y-95282904D01*
X175951619Y-95235285D01*
X175904000Y-95187666D01*
X175856380Y-95092428D01*
%TO.C,MCU1*%
X121864666Y-109462380D02*
X121864666Y-108462380D01*
X122198000Y-109176666D01*
X122531333Y-108462380D01*
X122531333Y-109462380D01*
X123578952Y-109367142D02*
X123531333Y-109414761D01*
X123388476Y-109462380D01*
X123293238Y-109462380D01*
X123150380Y-109414761D01*
X123055142Y-109319523D01*
X123007523Y-109224285D01*
X122959904Y-109033809D01*
X122959904Y-108890952D01*
X123007523Y-108700476D01*
X123055142Y-108605238D01*
X123150380Y-108510000D01*
X123293238Y-108462380D01*
X123388476Y-108462380D01*
X123531333Y-108510000D01*
X123578952Y-108557619D01*
X124007523Y-108462380D02*
X124007523Y-109271904D01*
X124055142Y-109367142D01*
X124102761Y-109414761D01*
X124198000Y-109462380D01*
X124388476Y-109462380D01*
X124483714Y-109414761D01*
X124531333Y-109367142D01*
X124578952Y-109271904D01*
X124578952Y-108462380D01*
X125578952Y-109462380D02*
X125007523Y-109462380D01*
X125293238Y-109462380D02*
X125293238Y-108462380D01*
X125198000Y-108605238D01*
X125102761Y-108700476D01*
X125007523Y-108748095D01*
%TO.C,Y1*%
X109450190Y-95980190D02*
X109926380Y-95980190D01*
X108926380Y-96313523D02*
X109450190Y-95980190D01*
X108926380Y-95646857D01*
X109926380Y-94789714D02*
X109926380Y-95361142D01*
X109926380Y-95075428D02*
X108926380Y-95075428D01*
X109069238Y-95170666D01*
X109164476Y-95265904D01*
X109212095Y-95361142D01*
%TO.C,U3*%
X191770095Y-98004380D02*
X191770095Y-98813904D01*
X191817714Y-98909142D01*
X191865333Y-98956761D01*
X191960571Y-99004380D01*
X192151047Y-99004380D01*
X192246285Y-98956761D01*
X192293904Y-98909142D01*
X192341523Y-98813904D01*
X192341523Y-98004380D01*
X192722476Y-98004380D02*
X193341523Y-98004380D01*
X193008190Y-98385333D01*
X193151047Y-98385333D01*
X193246285Y-98432952D01*
X193293904Y-98480571D01*
X193341523Y-98575809D01*
X193341523Y-98813904D01*
X193293904Y-98909142D01*
X193246285Y-98956761D01*
X193151047Y-99004380D01*
X192865333Y-99004380D01*
X192770095Y-98956761D01*
X192722476Y-98909142D01*
%TO.C,SW7*%
X119570666Y-67460761D02*
X119713523Y-67508380D01*
X119951619Y-67508380D01*
X120046857Y-67460761D01*
X120094476Y-67413142D01*
X120142095Y-67317904D01*
X120142095Y-67222666D01*
X120094476Y-67127428D01*
X120046857Y-67079809D01*
X119951619Y-67032190D01*
X119761142Y-66984571D01*
X119665904Y-66936952D01*
X119618285Y-66889333D01*
X119570666Y-66794095D01*
X119570666Y-66698857D01*
X119618285Y-66603619D01*
X119665904Y-66556000D01*
X119761142Y-66508380D01*
X119999238Y-66508380D01*
X120142095Y-66556000D01*
X120475428Y-66508380D02*
X120713523Y-67508380D01*
X120904000Y-66794095D01*
X121094476Y-67508380D01*
X121332571Y-66508380D01*
X121618285Y-66508380D02*
X122284952Y-66508380D01*
X121856380Y-67508380D01*
%TO.C,R19*%
X175642142Y-67128380D02*
X175308809Y-66652190D01*
X175070714Y-67128380D02*
X175070714Y-66128380D01*
X175451666Y-66128380D01*
X175546904Y-66176000D01*
X175594523Y-66223619D01*
X175642142Y-66318857D01*
X175642142Y-66461714D01*
X175594523Y-66556952D01*
X175546904Y-66604571D01*
X175451666Y-66652190D01*
X175070714Y-66652190D01*
X176594523Y-67128380D02*
X176023095Y-67128380D01*
X176308809Y-67128380D02*
X176308809Y-66128380D01*
X176213571Y-66271238D01*
X176118333Y-66366476D01*
X176023095Y-66414095D01*
X177070714Y-67128380D02*
X177261190Y-67128380D01*
X177356428Y-67080761D01*
X177404047Y-67033142D01*
X177499285Y-66890285D01*
X177546904Y-66699809D01*
X177546904Y-66318857D01*
X177499285Y-66223619D01*
X177451666Y-66176000D01*
X177356428Y-66128380D01*
X177165952Y-66128380D01*
X177070714Y-66176000D01*
X177023095Y-66223619D01*
X176975476Y-66318857D01*
X176975476Y-66556952D01*
X177023095Y-66652190D01*
X177070714Y-66699809D01*
X177165952Y-66747428D01*
X177356428Y-66747428D01*
X177451666Y-66699809D01*
X177499285Y-66652190D01*
X177546904Y-66556952D01*
%TO.C,R18*%
X166244142Y-77034380D02*
X165910809Y-76558190D01*
X165672714Y-77034380D02*
X165672714Y-76034380D01*
X166053666Y-76034380D01*
X166148904Y-76082000D01*
X166196523Y-76129619D01*
X166244142Y-76224857D01*
X166244142Y-76367714D01*
X166196523Y-76462952D01*
X166148904Y-76510571D01*
X166053666Y-76558190D01*
X165672714Y-76558190D01*
X167196523Y-77034380D02*
X166625095Y-77034380D01*
X166910809Y-77034380D02*
X166910809Y-76034380D01*
X166815571Y-76177238D01*
X166720333Y-76272476D01*
X166625095Y-76320095D01*
X167767952Y-76462952D02*
X167672714Y-76415333D01*
X167625095Y-76367714D01*
X167577476Y-76272476D01*
X167577476Y-76224857D01*
X167625095Y-76129619D01*
X167672714Y-76082000D01*
X167767952Y-76034380D01*
X167958428Y-76034380D01*
X168053666Y-76082000D01*
X168101285Y-76129619D01*
X168148904Y-76224857D01*
X168148904Y-76272476D01*
X168101285Y-76367714D01*
X168053666Y-76415333D01*
X167958428Y-76462952D01*
X167767952Y-76462952D01*
X167672714Y-76510571D01*
X167625095Y-76558190D01*
X167577476Y-76653428D01*
X167577476Y-76843904D01*
X167625095Y-76939142D01*
X167672714Y-76986761D01*
X167767952Y-77034380D01*
X167958428Y-77034380D01*
X168053666Y-76986761D01*
X168101285Y-76939142D01*
X168148904Y-76843904D01*
X168148904Y-76653428D01*
X168101285Y-76558190D01*
X168053666Y-76510571D01*
X167958428Y-76462952D01*
%TO.C,Q2*%
X160448761Y-76787619D02*
X160353523Y-76740000D01*
X160258285Y-76644761D01*
X160115428Y-76501904D01*
X160020190Y-76454285D01*
X159924952Y-76454285D01*
X159972571Y-76692380D02*
X159877333Y-76644761D01*
X159782095Y-76549523D01*
X159734476Y-76359047D01*
X159734476Y-76025714D01*
X159782095Y-75835238D01*
X159877333Y-75740000D01*
X159972571Y-75692380D01*
X160163047Y-75692380D01*
X160258285Y-75740000D01*
X160353523Y-75835238D01*
X160401142Y-76025714D01*
X160401142Y-76359047D01*
X160353523Y-76549523D01*
X160258285Y-76644761D01*
X160163047Y-76692380D01*
X159972571Y-76692380D01*
X160782095Y-75787619D02*
X160829714Y-75740000D01*
X160924952Y-75692380D01*
X161163047Y-75692380D01*
X161258285Y-75740000D01*
X161305904Y-75787619D01*
X161353523Y-75882857D01*
X161353523Y-75978095D01*
X161305904Y-76120952D01*
X160734476Y-76692380D01*
X161353523Y-76692380D01*
%TO.C,Q1*%
X160702761Y-70183619D02*
X160607523Y-70136000D01*
X160512285Y-70040761D01*
X160369428Y-69897904D01*
X160274190Y-69850285D01*
X160178952Y-69850285D01*
X160226571Y-70088380D02*
X160131333Y-70040761D01*
X160036095Y-69945523D01*
X159988476Y-69755047D01*
X159988476Y-69421714D01*
X160036095Y-69231238D01*
X160131333Y-69136000D01*
X160226571Y-69088380D01*
X160417047Y-69088380D01*
X160512285Y-69136000D01*
X160607523Y-69231238D01*
X160655142Y-69421714D01*
X160655142Y-69755047D01*
X160607523Y-69945523D01*
X160512285Y-70040761D01*
X160417047Y-70088380D01*
X160226571Y-70088380D01*
X161607523Y-70088380D02*
X161036095Y-70088380D01*
X161321809Y-70088380D02*
X161321809Y-69088380D01*
X161226571Y-69231238D01*
X161131333Y-69326476D01*
X161036095Y-69374095D01*
%TO.C,C16*%
X165972142Y-71351142D02*
X165924523Y-71398761D01*
X165781666Y-71446380D01*
X165686428Y-71446380D01*
X165543571Y-71398761D01*
X165448333Y-71303523D01*
X165400714Y-71208285D01*
X165353095Y-71017809D01*
X165353095Y-70874952D01*
X165400714Y-70684476D01*
X165448333Y-70589238D01*
X165543571Y-70494000D01*
X165686428Y-70446380D01*
X165781666Y-70446380D01*
X165924523Y-70494000D01*
X165972142Y-70541619D01*
X166924523Y-71446380D02*
X166353095Y-71446380D01*
X166638809Y-71446380D02*
X166638809Y-70446380D01*
X166543571Y-70589238D01*
X166448333Y-70684476D01*
X166353095Y-70732095D01*
X167781666Y-70446380D02*
X167591190Y-70446380D01*
X167495952Y-70494000D01*
X167448333Y-70541619D01*
X167353095Y-70684476D01*
X167305476Y-70874952D01*
X167305476Y-71255904D01*
X167353095Y-71351142D01*
X167400714Y-71398761D01*
X167495952Y-71446380D01*
X167686428Y-71446380D01*
X167781666Y-71398761D01*
X167829285Y-71351142D01*
X167876904Y-71255904D01*
X167876904Y-71017809D01*
X167829285Y-70922571D01*
X167781666Y-70874952D01*
X167686428Y-70827333D01*
X167495952Y-70827333D01*
X167400714Y-70874952D01*
X167353095Y-70922571D01*
X167305476Y-71017809D01*
%TO.C,C1*%
X111737142Y-81963666D02*
X111784761Y-82011285D01*
X111832380Y-82154142D01*
X111832380Y-82249380D01*
X111784761Y-82392238D01*
X111689523Y-82487476D01*
X111594285Y-82535095D01*
X111403809Y-82582714D01*
X111260952Y-82582714D01*
X111070476Y-82535095D01*
X110975238Y-82487476D01*
X110880000Y-82392238D01*
X110832380Y-82249380D01*
X110832380Y-82154142D01*
X110880000Y-82011285D01*
X110927619Y-81963666D01*
X111832380Y-81011285D02*
X111832380Y-81582714D01*
X111832380Y-81297000D02*
X110832380Y-81297000D01*
X110975238Y-81392238D01*
X111070476Y-81487476D01*
X111118095Y-81582714D01*
%TO.C,C2*%
X113126333Y-104625142D02*
X113078714Y-104672761D01*
X112935857Y-104720380D01*
X112840619Y-104720380D01*
X112697761Y-104672761D01*
X112602523Y-104577523D01*
X112554904Y-104482285D01*
X112507285Y-104291809D01*
X112507285Y-104148952D01*
X112554904Y-103958476D01*
X112602523Y-103863238D01*
X112697761Y-103768000D01*
X112840619Y-103720380D01*
X112935857Y-103720380D01*
X113078714Y-103768000D01*
X113126333Y-103815619D01*
X113507285Y-103815619D02*
X113554904Y-103768000D01*
X113650142Y-103720380D01*
X113888238Y-103720380D01*
X113983476Y-103768000D01*
X114031095Y-103815619D01*
X114078714Y-103910857D01*
X114078714Y-104006095D01*
X114031095Y-104148952D01*
X113459666Y-104720380D01*
X114078714Y-104720380D01*
%TO.C,C3*%
X113108333Y-86083142D02*
X113060714Y-86130761D01*
X112917857Y-86178380D01*
X112822619Y-86178380D01*
X112679761Y-86130761D01*
X112584523Y-86035523D01*
X112536904Y-85940285D01*
X112489285Y-85749809D01*
X112489285Y-85606952D01*
X112536904Y-85416476D01*
X112584523Y-85321238D01*
X112679761Y-85226000D01*
X112822619Y-85178380D01*
X112917857Y-85178380D01*
X113060714Y-85226000D01*
X113108333Y-85273619D01*
X113441666Y-85178380D02*
X114060714Y-85178380D01*
X113727380Y-85559333D01*
X113870238Y-85559333D01*
X113965476Y-85606952D01*
X114013095Y-85654571D01*
X114060714Y-85749809D01*
X114060714Y-85987904D01*
X114013095Y-86083142D01*
X113965476Y-86130761D01*
X113870238Y-86178380D01*
X113584523Y-86178380D01*
X113489285Y-86130761D01*
X113441666Y-86083142D01*
%TO.C,C4*%
X132158333Y-85321142D02*
X132110714Y-85368761D01*
X131967857Y-85416380D01*
X131872619Y-85416380D01*
X131729761Y-85368761D01*
X131634523Y-85273523D01*
X131586904Y-85178285D01*
X131539285Y-84987809D01*
X131539285Y-84844952D01*
X131586904Y-84654476D01*
X131634523Y-84559238D01*
X131729761Y-84464000D01*
X131872619Y-84416380D01*
X131967857Y-84416380D01*
X132110714Y-84464000D01*
X132158333Y-84511619D01*
X133015476Y-84749714D02*
X133015476Y-85416380D01*
X132777380Y-84368761D02*
X132539285Y-85083047D01*
X133158333Y-85083047D01*
%TO.C,C5*%
X132167333Y-80495142D02*
X132119714Y-80542761D01*
X131976857Y-80590380D01*
X131881619Y-80590380D01*
X131738761Y-80542761D01*
X131643523Y-80447523D01*
X131595904Y-80352285D01*
X131548285Y-80161809D01*
X131548285Y-80018952D01*
X131595904Y-79828476D01*
X131643523Y-79733238D01*
X131738761Y-79638000D01*
X131881619Y-79590380D01*
X131976857Y-79590380D01*
X132119714Y-79638000D01*
X132167333Y-79685619D01*
X133072095Y-79590380D02*
X132595904Y-79590380D01*
X132548285Y-80066571D01*
X132595904Y-80018952D01*
X132691142Y-79971333D01*
X132929238Y-79971333D01*
X133024476Y-80018952D01*
X133072095Y-80066571D01*
X133119714Y-80161809D01*
X133119714Y-80399904D01*
X133072095Y-80495142D01*
X133024476Y-80542761D01*
X132929238Y-80590380D01*
X132691142Y-80590380D01*
X132595904Y-80542761D01*
X132548285Y-80495142D01*
%TO.C,C6*%
X174983142Y-90853666D02*
X175030761Y-90901285D01*
X175078380Y-91044142D01*
X175078380Y-91139380D01*
X175030761Y-91282238D01*
X174935523Y-91377476D01*
X174840285Y-91425095D01*
X174649809Y-91472714D01*
X174506952Y-91472714D01*
X174316476Y-91425095D01*
X174221238Y-91377476D01*
X174126000Y-91282238D01*
X174078380Y-91139380D01*
X174078380Y-91044142D01*
X174126000Y-90901285D01*
X174173619Y-90853666D01*
X174078380Y-89996523D02*
X174078380Y-90187000D01*
X174126000Y-90282238D01*
X174173619Y-90329857D01*
X174316476Y-90425095D01*
X174506952Y-90472714D01*
X174887904Y-90472714D01*
X174983142Y-90425095D01*
X175030761Y-90377476D01*
X175078380Y-90282238D01*
X175078380Y-90091761D01*
X175030761Y-89996523D01*
X174983142Y-89948904D01*
X174887904Y-89901285D01*
X174649809Y-89901285D01*
X174554571Y-89948904D01*
X174506952Y-89996523D01*
X174459333Y-90091761D01*
X174459333Y-90282238D01*
X174506952Y-90377476D01*
X174554571Y-90425095D01*
X174649809Y-90472714D01*
%TO.C,C7*%
X171173142Y-95924666D02*
X171220761Y-95972285D01*
X171268380Y-96115142D01*
X171268380Y-96210380D01*
X171220761Y-96353238D01*
X171125523Y-96448476D01*
X171030285Y-96496095D01*
X170839809Y-96543714D01*
X170696952Y-96543714D01*
X170506476Y-96496095D01*
X170411238Y-96448476D01*
X170316000Y-96353238D01*
X170268380Y-96210380D01*
X170268380Y-96115142D01*
X170316000Y-95972285D01*
X170363619Y-95924666D01*
X170268380Y-95591333D02*
X170268380Y-94924666D01*
X171268380Y-95353238D01*
%TO.C,C8*%
X168734333Y-83289142D02*
X168686714Y-83336761D01*
X168543857Y-83384380D01*
X168448619Y-83384380D01*
X168305761Y-83336761D01*
X168210523Y-83241523D01*
X168162904Y-83146285D01*
X168115285Y-82955809D01*
X168115285Y-82812952D01*
X168162904Y-82622476D01*
X168210523Y-82527238D01*
X168305761Y-82432000D01*
X168448619Y-82384380D01*
X168543857Y-82384380D01*
X168686714Y-82432000D01*
X168734333Y-82479619D01*
X169305761Y-82812952D02*
X169210523Y-82765333D01*
X169162904Y-82717714D01*
X169115285Y-82622476D01*
X169115285Y-82574857D01*
X169162904Y-82479619D01*
X169210523Y-82432000D01*
X169305761Y-82384380D01*
X169496238Y-82384380D01*
X169591476Y-82432000D01*
X169639095Y-82479619D01*
X169686714Y-82574857D01*
X169686714Y-82622476D01*
X169639095Y-82717714D01*
X169591476Y-82765333D01*
X169496238Y-82812952D01*
X169305761Y-82812952D01*
X169210523Y-82860571D01*
X169162904Y-82908190D01*
X169115285Y-83003428D01*
X169115285Y-83193904D01*
X169162904Y-83289142D01*
X169210523Y-83336761D01*
X169305761Y-83384380D01*
X169496238Y-83384380D01*
X169591476Y-83336761D01*
X169639095Y-83289142D01*
X169686714Y-83193904D01*
X169686714Y-83003428D01*
X169639095Y-82908190D01*
X169591476Y-82860571D01*
X169496238Y-82812952D01*
%TO.C,C9*%
X134961333Y-63976142D02*
X134913714Y-64023761D01*
X134770857Y-64071380D01*
X134675619Y-64071380D01*
X134532761Y-64023761D01*
X134437523Y-63928523D01*
X134389904Y-63833285D01*
X134342285Y-63642809D01*
X134342285Y-63499952D01*
X134389904Y-63309476D01*
X134437523Y-63214238D01*
X134532761Y-63119000D01*
X134675619Y-63071380D01*
X134770857Y-63071380D01*
X134913714Y-63119000D01*
X134961333Y-63166619D01*
X135437523Y-64071380D02*
X135628000Y-64071380D01*
X135723238Y-64023761D01*
X135770857Y-63976142D01*
X135866095Y-63833285D01*
X135913714Y-63642809D01*
X135913714Y-63261857D01*
X135866095Y-63166619D01*
X135818476Y-63119000D01*
X135723238Y-63071380D01*
X135532761Y-63071380D01*
X135437523Y-63119000D01*
X135389904Y-63166619D01*
X135342285Y-63261857D01*
X135342285Y-63499952D01*
X135389904Y-63595190D01*
X135437523Y-63642809D01*
X135532761Y-63690428D01*
X135723238Y-63690428D01*
X135818476Y-63642809D01*
X135866095Y-63595190D01*
X135913714Y-63499952D01*
%TO.C,C10*%
X168512142Y-88877142D02*
X168464523Y-88924761D01*
X168321666Y-88972380D01*
X168226428Y-88972380D01*
X168083571Y-88924761D01*
X167988333Y-88829523D01*
X167940714Y-88734285D01*
X167893095Y-88543809D01*
X167893095Y-88400952D01*
X167940714Y-88210476D01*
X167988333Y-88115238D01*
X168083571Y-88020000D01*
X168226428Y-87972380D01*
X168321666Y-87972380D01*
X168464523Y-88020000D01*
X168512142Y-88067619D01*
X169464523Y-88972380D02*
X168893095Y-88972380D01*
X169178809Y-88972380D02*
X169178809Y-87972380D01*
X169083571Y-88115238D01*
X168988333Y-88210476D01*
X168893095Y-88258095D01*
X170083571Y-87972380D02*
X170178809Y-87972380D01*
X170274047Y-88020000D01*
X170321666Y-88067619D01*
X170369285Y-88162857D01*
X170416904Y-88353333D01*
X170416904Y-88591428D01*
X170369285Y-88781904D01*
X170321666Y-88877142D01*
X170274047Y-88924761D01*
X170178809Y-88972380D01*
X170083571Y-88972380D01*
X169988333Y-88924761D01*
X169940714Y-88877142D01*
X169893095Y-88781904D01*
X169845476Y-88591428D01*
X169845476Y-88353333D01*
X169893095Y-88162857D01*
X169940714Y-88067619D01*
X169988333Y-88020000D01*
X170083571Y-87972380D01*
%TO.C,C11*%
X134739142Y-68820142D02*
X134691523Y-68867761D01*
X134548666Y-68915380D01*
X134453428Y-68915380D01*
X134310571Y-68867761D01*
X134215333Y-68772523D01*
X134167714Y-68677285D01*
X134120095Y-68486809D01*
X134120095Y-68343952D01*
X134167714Y-68153476D01*
X134215333Y-68058238D01*
X134310571Y-67963000D01*
X134453428Y-67915380D01*
X134548666Y-67915380D01*
X134691523Y-67963000D01*
X134739142Y-68010619D01*
X135691523Y-68915380D02*
X135120095Y-68915380D01*
X135405809Y-68915380D02*
X135405809Y-67915380D01*
X135310571Y-68058238D01*
X135215333Y-68153476D01*
X135120095Y-68201095D01*
X136643904Y-68915380D02*
X136072476Y-68915380D01*
X136358190Y-68915380D02*
X136358190Y-67915380D01*
X136262952Y-68058238D01*
X136167714Y-68153476D01*
X136072476Y-68201095D01*
%TO.C,C12*%
X178283142Y-86993857D02*
X178330761Y-87041476D01*
X178378380Y-87184333D01*
X178378380Y-87279571D01*
X178330761Y-87422428D01*
X178235523Y-87517666D01*
X178140285Y-87565285D01*
X177949809Y-87612904D01*
X177806952Y-87612904D01*
X177616476Y-87565285D01*
X177521238Y-87517666D01*
X177426000Y-87422428D01*
X177378380Y-87279571D01*
X177378380Y-87184333D01*
X177426000Y-87041476D01*
X177473619Y-86993857D01*
X178378380Y-86041476D02*
X178378380Y-86612904D01*
X178378380Y-86327190D02*
X177378380Y-86327190D01*
X177521238Y-86422428D01*
X177616476Y-86517666D01*
X177664095Y-86612904D01*
X177473619Y-85660523D02*
X177426000Y-85612904D01*
X177378380Y-85517666D01*
X177378380Y-85279571D01*
X177426000Y-85184333D01*
X177473619Y-85136714D01*
X177568857Y-85089095D01*
X177664095Y-85089095D01*
X177806952Y-85136714D01*
X178378380Y-85708142D01*
X178378380Y-85089095D01*
%TO.C,C13*%
X174983142Y-82675857D02*
X175030761Y-82723476D01*
X175078380Y-82866333D01*
X175078380Y-82961571D01*
X175030761Y-83104428D01*
X174935523Y-83199666D01*
X174840285Y-83247285D01*
X174649809Y-83294904D01*
X174506952Y-83294904D01*
X174316476Y-83247285D01*
X174221238Y-83199666D01*
X174126000Y-83104428D01*
X174078380Y-82961571D01*
X174078380Y-82866333D01*
X174126000Y-82723476D01*
X174173619Y-82675857D01*
X175078380Y-81723476D02*
X175078380Y-82294904D01*
X175078380Y-82009190D02*
X174078380Y-82009190D01*
X174221238Y-82104428D01*
X174316476Y-82199666D01*
X174364095Y-82294904D01*
X174078380Y-81390142D02*
X174078380Y-80771095D01*
X174459333Y-81104428D01*
X174459333Y-80961571D01*
X174506952Y-80866333D01*
X174554571Y-80818714D01*
X174649809Y-80771095D01*
X174887904Y-80771095D01*
X174983142Y-80818714D01*
X175030761Y-80866333D01*
X175078380Y-80961571D01*
X175078380Y-81247285D01*
X175030761Y-81342523D01*
X174983142Y-81390142D01*
%TO.C,C14*%
X180571142Y-83446857D02*
X180618761Y-83494476D01*
X180666380Y-83637333D01*
X180666380Y-83732571D01*
X180618761Y-83875428D01*
X180523523Y-83970666D01*
X180428285Y-84018285D01*
X180237809Y-84065904D01*
X180094952Y-84065904D01*
X179904476Y-84018285D01*
X179809238Y-83970666D01*
X179714000Y-83875428D01*
X179666380Y-83732571D01*
X179666380Y-83637333D01*
X179714000Y-83494476D01*
X179761619Y-83446857D01*
X180666380Y-82494476D02*
X180666380Y-83065904D01*
X180666380Y-82780190D02*
X179666380Y-82780190D01*
X179809238Y-82875428D01*
X179904476Y-82970666D01*
X179952095Y-83065904D01*
X179999714Y-81637333D02*
X180666380Y-81637333D01*
X179618761Y-81875428D02*
X180333047Y-82113523D01*
X180333047Y-81494476D01*
%TO.C,C15*%
X180571142Y-78375857D02*
X180618761Y-78423476D01*
X180666380Y-78566333D01*
X180666380Y-78661571D01*
X180618761Y-78804428D01*
X180523523Y-78899666D01*
X180428285Y-78947285D01*
X180237809Y-78994904D01*
X180094952Y-78994904D01*
X179904476Y-78947285D01*
X179809238Y-78899666D01*
X179714000Y-78804428D01*
X179666380Y-78661571D01*
X179666380Y-78566333D01*
X179714000Y-78423476D01*
X179761619Y-78375857D01*
X180666380Y-77423476D02*
X180666380Y-77994904D01*
X180666380Y-77709190D02*
X179666380Y-77709190D01*
X179809238Y-77804428D01*
X179904476Y-77899666D01*
X179952095Y-77994904D01*
X179666380Y-76518714D02*
X179666380Y-76994904D01*
X180142571Y-77042523D01*
X180094952Y-76994904D01*
X180047333Y-76899666D01*
X180047333Y-76661571D01*
X180094952Y-76566333D01*
X180142571Y-76518714D01*
X180237809Y-76471095D01*
X180475904Y-76471095D01*
X180571142Y-76518714D01*
X180618761Y-76566333D01*
X180666380Y-76661571D01*
X180666380Y-76899666D01*
X180618761Y-76994904D01*
X180571142Y-77042523D01*
%TO.C,D1*%
X144850380Y-98782095D02*
X143850380Y-98782095D01*
X143850380Y-98544000D01*
X143898000Y-98401142D01*
X143993238Y-98305904D01*
X144088476Y-98258285D01*
X144278952Y-98210666D01*
X144421809Y-98210666D01*
X144612285Y-98258285D01*
X144707523Y-98305904D01*
X144802761Y-98401142D01*
X144850380Y-98544000D01*
X144850380Y-98782095D01*
X144850380Y-97258285D02*
X144850380Y-97829714D01*
X144850380Y-97544000D02*
X143850380Y-97544000D01*
X143993238Y-97639238D01*
X144088476Y-97734476D01*
X144136095Y-97829714D01*
%TO.C,D2*%
X146630380Y-98773095D02*
X145630380Y-98773095D01*
X145630380Y-98535000D01*
X145678000Y-98392142D01*
X145773238Y-98296904D01*
X145868476Y-98249285D01*
X146058952Y-98201666D01*
X146201809Y-98201666D01*
X146392285Y-98249285D01*
X146487523Y-98296904D01*
X146582761Y-98392142D01*
X146630380Y-98535000D01*
X146630380Y-98773095D01*
X145725619Y-97820714D02*
X145678000Y-97773095D01*
X145630380Y-97677857D01*
X145630380Y-97439761D01*
X145678000Y-97344523D01*
X145725619Y-97296904D01*
X145820857Y-97249285D01*
X145916095Y-97249285D01*
X146058952Y-97296904D01*
X146630380Y-97868333D01*
X146630380Y-97249285D01*
%TO.C,D3*%
X181878904Y-67380380D02*
X181878904Y-66380380D01*
X182117000Y-66380380D01*
X182259857Y-66428000D01*
X182355095Y-66523238D01*
X182402714Y-66618476D01*
X182450333Y-66808952D01*
X182450333Y-66951809D01*
X182402714Y-67142285D01*
X182355095Y-67237523D01*
X182259857Y-67332761D01*
X182117000Y-67380380D01*
X181878904Y-67380380D01*
X182783666Y-66380380D02*
X183402714Y-66380380D01*
X183069380Y-66761333D01*
X183212238Y-66761333D01*
X183307476Y-66808952D01*
X183355095Y-66856571D01*
X183402714Y-66951809D01*
X183402714Y-67189904D01*
X183355095Y-67285142D01*
X183307476Y-67332761D01*
X183212238Y-67380380D01*
X182926523Y-67380380D01*
X182831285Y-67332761D01*
X182783666Y-67285142D01*
%TO.C,D5*%
X136778380Y-86590095D02*
X135778380Y-86590095D01*
X135778380Y-86352000D01*
X135826000Y-86209142D01*
X135921238Y-86113904D01*
X136016476Y-86066285D01*
X136206952Y-86018666D01*
X136349809Y-86018666D01*
X136540285Y-86066285D01*
X136635523Y-86113904D01*
X136730761Y-86209142D01*
X136778380Y-86352000D01*
X136778380Y-86590095D01*
X135778380Y-85113904D02*
X135778380Y-85590095D01*
X136254571Y-85637714D01*
X136206952Y-85590095D01*
X136159333Y-85494857D01*
X136159333Y-85256761D01*
X136206952Y-85161523D01*
X136254571Y-85113904D01*
X136349809Y-85066285D01*
X136587904Y-85066285D01*
X136683142Y-85113904D01*
X136730761Y-85161523D01*
X136778380Y-85256761D01*
X136778380Y-85494857D01*
X136730761Y-85590095D01*
X136683142Y-85637714D01*
%TO.C,J1*%
X166964380Y-101383333D02*
X167678666Y-101383333D01*
X167821523Y-101430952D01*
X167916761Y-101526190D01*
X167964380Y-101669047D01*
X167964380Y-101764285D01*
X167964380Y-100383333D02*
X167964380Y-100954761D01*
X167964380Y-100669047D02*
X166964380Y-100669047D01*
X167107238Y-100764285D01*
X167202476Y-100859523D01*
X167250095Y-100954761D01*
%TO.C,R1*%
X111832380Y-75613666D02*
X111356190Y-75947000D01*
X111832380Y-76185095D02*
X110832380Y-76185095D01*
X110832380Y-75804142D01*
X110880000Y-75708904D01*
X110927619Y-75661285D01*
X111022857Y-75613666D01*
X111165714Y-75613666D01*
X111260952Y-75661285D01*
X111308571Y-75708904D01*
X111356190Y-75804142D01*
X111356190Y-76185095D01*
X111832380Y-74661285D02*
X111832380Y-75232714D01*
X111832380Y-74947000D02*
X110832380Y-74947000D01*
X110975238Y-75042238D01*
X111070476Y-75137476D01*
X111118095Y-75232714D01*
%TO.C,R2*%
X157812333Y-88462380D02*
X157479000Y-87986190D01*
X157240904Y-88462380D02*
X157240904Y-87462380D01*
X157621857Y-87462380D01*
X157717095Y-87510000D01*
X157764714Y-87557619D01*
X157812333Y-87652857D01*
X157812333Y-87795714D01*
X157764714Y-87890952D01*
X157717095Y-87938571D01*
X157621857Y-87986190D01*
X157240904Y-87986190D01*
X158193285Y-87557619D02*
X158240904Y-87510000D01*
X158336142Y-87462380D01*
X158574238Y-87462380D01*
X158669476Y-87510000D01*
X158717095Y-87557619D01*
X158764714Y-87652857D01*
X158764714Y-87748095D01*
X158717095Y-87890952D01*
X158145666Y-88462380D01*
X158764714Y-88462380D01*
%TO.C,R3*%
X157558333Y-94304380D02*
X157225000Y-93828190D01*
X156986904Y-94304380D02*
X156986904Y-93304380D01*
X157367857Y-93304380D01*
X157463095Y-93352000D01*
X157510714Y-93399619D01*
X157558333Y-93494857D01*
X157558333Y-93637714D01*
X157510714Y-93732952D01*
X157463095Y-93780571D01*
X157367857Y-93828190D01*
X156986904Y-93828190D01*
X157891666Y-93304380D02*
X158510714Y-93304380D01*
X158177380Y-93685333D01*
X158320238Y-93685333D01*
X158415476Y-93732952D01*
X158463095Y-93780571D01*
X158510714Y-93875809D01*
X158510714Y-94113904D01*
X158463095Y-94209142D01*
X158415476Y-94256761D01*
X158320238Y-94304380D01*
X158034523Y-94304380D01*
X157939285Y-94256761D01*
X157891666Y-94209142D01*
%TO.C,R4*%
X149938333Y-89226380D02*
X149605000Y-88750190D01*
X149366904Y-89226380D02*
X149366904Y-88226380D01*
X149747857Y-88226380D01*
X149843095Y-88274000D01*
X149890714Y-88321619D01*
X149938333Y-88416857D01*
X149938333Y-88559714D01*
X149890714Y-88654952D01*
X149843095Y-88702571D01*
X149747857Y-88750190D01*
X149366904Y-88750190D01*
X150795476Y-88559714D02*
X150795476Y-89226380D01*
X150557380Y-88178761D02*
X150319285Y-88893047D01*
X150938333Y-88893047D01*
%TO.C,R5*%
X131390380Y-97965666D02*
X130914190Y-98299000D01*
X131390380Y-98537095D02*
X130390380Y-98537095D01*
X130390380Y-98156142D01*
X130438000Y-98060904D01*
X130485619Y-98013285D01*
X130580857Y-97965666D01*
X130723714Y-97965666D01*
X130818952Y-98013285D01*
X130866571Y-98060904D01*
X130914190Y-98156142D01*
X130914190Y-98537095D01*
X130390380Y-97060904D02*
X130390380Y-97537095D01*
X130866571Y-97584714D01*
X130818952Y-97537095D01*
X130771333Y-97441857D01*
X130771333Y-97203761D01*
X130818952Y-97108523D01*
X130866571Y-97060904D01*
X130961809Y-97013285D01*
X131199904Y-97013285D01*
X131295142Y-97060904D01*
X131342761Y-97108523D01*
X131390380Y-97203761D01*
X131390380Y-97441857D01*
X131342761Y-97537095D01*
X131295142Y-97584714D01*
%TO.C,R6*%
X136724380Y-97965666D02*
X136248190Y-98299000D01*
X136724380Y-98537095D02*
X135724380Y-98537095D01*
X135724380Y-98156142D01*
X135772000Y-98060904D01*
X135819619Y-98013285D01*
X135914857Y-97965666D01*
X136057714Y-97965666D01*
X136152952Y-98013285D01*
X136200571Y-98060904D01*
X136248190Y-98156142D01*
X136248190Y-98537095D01*
X135724380Y-97108523D02*
X135724380Y-97299000D01*
X135772000Y-97394238D01*
X135819619Y-97441857D01*
X135962476Y-97537095D01*
X136152952Y-97584714D01*
X136533904Y-97584714D01*
X136629142Y-97537095D01*
X136676761Y-97489476D01*
X136724380Y-97394238D01*
X136724380Y-97203761D01*
X136676761Y-97108523D01*
X136629142Y-97060904D01*
X136533904Y-97013285D01*
X136295809Y-97013285D01*
X136200571Y-97060904D01*
X136152952Y-97108523D01*
X136105333Y-97203761D01*
X136105333Y-97394238D01*
X136152952Y-97489476D01*
X136200571Y-97537095D01*
X136295809Y-97584714D01*
%TO.C,R7*%
X182196333Y-71190380D02*
X181863000Y-70714190D01*
X181624904Y-71190380D02*
X181624904Y-70190380D01*
X182005857Y-70190380D01*
X182101095Y-70238000D01*
X182148714Y-70285619D01*
X182196333Y-70380857D01*
X182196333Y-70523714D01*
X182148714Y-70618952D01*
X182101095Y-70666571D01*
X182005857Y-70714190D01*
X181624904Y-70714190D01*
X182529666Y-70190380D02*
X183196333Y-70190380D01*
X182767761Y-71190380D01*
%TO.C,R8*%
X141296380Y-81446666D02*
X140820190Y-81780000D01*
X141296380Y-82018095D02*
X140296380Y-82018095D01*
X140296380Y-81637142D01*
X140344000Y-81541904D01*
X140391619Y-81494285D01*
X140486857Y-81446666D01*
X140629714Y-81446666D01*
X140724952Y-81494285D01*
X140772571Y-81541904D01*
X140820190Y-81637142D01*
X140820190Y-82018095D01*
X140724952Y-80875238D02*
X140677333Y-80970476D01*
X140629714Y-81018095D01*
X140534476Y-81065714D01*
X140486857Y-81065714D01*
X140391619Y-81018095D01*
X140344000Y-80970476D01*
X140296380Y-80875238D01*
X140296380Y-80684761D01*
X140344000Y-80589523D01*
X140391619Y-80541904D01*
X140486857Y-80494285D01*
X140534476Y-80494285D01*
X140629714Y-80541904D01*
X140677333Y-80589523D01*
X140724952Y-80684761D01*
X140724952Y-80875238D01*
X140772571Y-80970476D01*
X140820190Y-81018095D01*
X140915428Y-81065714D01*
X141105904Y-81065714D01*
X141201142Y-81018095D01*
X141248761Y-80970476D01*
X141296380Y-80875238D01*
X141296380Y-80684761D01*
X141248761Y-80589523D01*
X141201142Y-80541904D01*
X141105904Y-80494285D01*
X140915428Y-80494285D01*
X140820190Y-80541904D01*
X140772571Y-80589523D01*
X140724952Y-80684761D01*
%TO.C,R9*%
X159330380Y-66977666D02*
X158854190Y-67311000D01*
X159330380Y-67549095D02*
X158330380Y-67549095D01*
X158330380Y-67168142D01*
X158378000Y-67072904D01*
X158425619Y-67025285D01*
X158520857Y-66977666D01*
X158663714Y-66977666D01*
X158758952Y-67025285D01*
X158806571Y-67072904D01*
X158854190Y-67168142D01*
X158854190Y-67549095D01*
X159330380Y-66501476D02*
X159330380Y-66311000D01*
X159282761Y-66215761D01*
X159235142Y-66168142D01*
X159092285Y-66072904D01*
X158901809Y-66025285D01*
X158520857Y-66025285D01*
X158425619Y-66072904D01*
X158378000Y-66120523D01*
X158330380Y-66215761D01*
X158330380Y-66406238D01*
X158378000Y-66501476D01*
X158425619Y-66549095D01*
X158520857Y-66596714D01*
X158758952Y-66596714D01*
X158854190Y-66549095D01*
X158901809Y-66501476D01*
X158949428Y-66406238D01*
X158949428Y-66215761D01*
X158901809Y-66120523D01*
X158854190Y-66072904D01*
X158758952Y-66025285D01*
%TO.C,R10*%
X131936142Y-75764380D02*
X131602809Y-75288190D01*
X131364714Y-75764380D02*
X131364714Y-74764380D01*
X131745666Y-74764380D01*
X131840904Y-74812000D01*
X131888523Y-74859619D01*
X131936142Y-74954857D01*
X131936142Y-75097714D01*
X131888523Y-75192952D01*
X131840904Y-75240571D01*
X131745666Y-75288190D01*
X131364714Y-75288190D01*
X132888523Y-75764380D02*
X132317095Y-75764380D01*
X132602809Y-75764380D02*
X132602809Y-74764380D01*
X132507571Y-74907238D01*
X132412333Y-75002476D01*
X132317095Y-75050095D01*
X133507571Y-74764380D02*
X133602809Y-74764380D01*
X133698047Y-74812000D01*
X133745666Y-74859619D01*
X133793285Y-74954857D01*
X133840904Y-75145333D01*
X133840904Y-75383428D01*
X133793285Y-75573904D01*
X133745666Y-75669142D01*
X133698047Y-75716761D01*
X133602809Y-75764380D01*
X133507571Y-75764380D01*
X133412333Y-75716761D01*
X133364714Y-75669142D01*
X133317095Y-75573904D01*
X133269476Y-75383428D01*
X133269476Y-75145333D01*
X133317095Y-74954857D01*
X133364714Y-74859619D01*
X133412333Y-74812000D01*
X133507571Y-74764380D01*
%TO.C,R11*%
X131682142Y-90496380D02*
X131348809Y-90020190D01*
X131110714Y-90496380D02*
X131110714Y-89496380D01*
X131491666Y-89496380D01*
X131586904Y-89544000D01*
X131634523Y-89591619D01*
X131682142Y-89686857D01*
X131682142Y-89829714D01*
X131634523Y-89924952D01*
X131586904Y-89972571D01*
X131491666Y-90020190D01*
X131110714Y-90020190D01*
X132634523Y-90496380D02*
X132063095Y-90496380D01*
X132348809Y-90496380D02*
X132348809Y-89496380D01*
X132253571Y-89639238D01*
X132158333Y-89734476D01*
X132063095Y-89782095D01*
X133586904Y-90496380D02*
X133015476Y-90496380D01*
X133301190Y-90496380D02*
X133301190Y-89496380D01*
X133205952Y-89639238D01*
X133110714Y-89734476D01*
X133015476Y-89782095D01*
%TO.C,R12*%
X105228380Y-99457857D02*
X104752190Y-99791190D01*
X105228380Y-100029285D02*
X104228380Y-100029285D01*
X104228380Y-99648333D01*
X104276000Y-99553095D01*
X104323619Y-99505476D01*
X104418857Y-99457857D01*
X104561714Y-99457857D01*
X104656952Y-99505476D01*
X104704571Y-99553095D01*
X104752190Y-99648333D01*
X104752190Y-100029285D01*
X105228380Y-98505476D02*
X105228380Y-99076904D01*
X105228380Y-98791190D02*
X104228380Y-98791190D01*
X104371238Y-98886428D01*
X104466476Y-98981666D01*
X104514095Y-99076904D01*
X104323619Y-98124523D02*
X104276000Y-98076904D01*
X104228380Y-97981666D01*
X104228380Y-97743571D01*
X104276000Y-97648333D01*
X104323619Y-97600714D01*
X104418857Y-97553095D01*
X104514095Y-97553095D01*
X104656952Y-97600714D01*
X105228380Y-98172142D01*
X105228380Y-97553095D01*
%TO.C,R13*%
X108528380Y-75563857D02*
X108052190Y-75897190D01*
X108528380Y-76135285D02*
X107528380Y-76135285D01*
X107528380Y-75754333D01*
X107576000Y-75659095D01*
X107623619Y-75611476D01*
X107718857Y-75563857D01*
X107861714Y-75563857D01*
X107956952Y-75611476D01*
X108004571Y-75659095D01*
X108052190Y-75754333D01*
X108052190Y-76135285D01*
X108528380Y-74611476D02*
X108528380Y-75182904D01*
X108528380Y-74897190D02*
X107528380Y-74897190D01*
X107671238Y-74992428D01*
X107766476Y-75087666D01*
X107814095Y-75182904D01*
X107528380Y-74278142D02*
X107528380Y-73659095D01*
X107909333Y-73992428D01*
X107909333Y-73849571D01*
X107956952Y-73754333D01*
X108004571Y-73706714D01*
X108099809Y-73659095D01*
X108337904Y-73659095D01*
X108433142Y-73706714D01*
X108480761Y-73754333D01*
X108528380Y-73849571D01*
X108528380Y-74135285D01*
X108480761Y-74230523D01*
X108433142Y-74278142D01*
%TO.C,R14*%
X105228380Y-82693857D02*
X104752190Y-83027190D01*
X105228380Y-83265285D02*
X104228380Y-83265285D01*
X104228380Y-82884333D01*
X104276000Y-82789095D01*
X104323619Y-82741476D01*
X104418857Y-82693857D01*
X104561714Y-82693857D01*
X104656952Y-82741476D01*
X104704571Y-82789095D01*
X104752190Y-82884333D01*
X104752190Y-83265285D01*
X105228380Y-81741476D02*
X105228380Y-82312904D01*
X105228380Y-82027190D02*
X104228380Y-82027190D01*
X104371238Y-82122428D01*
X104466476Y-82217666D01*
X104514095Y-82312904D01*
X104561714Y-80884333D02*
X105228380Y-80884333D01*
X104180761Y-81122428D02*
X104895047Y-81360523D01*
X104895047Y-80741476D01*
%TO.C,R15*%
X105228380Y-91583857D02*
X104752190Y-91917190D01*
X105228380Y-92155285D02*
X104228380Y-92155285D01*
X104228380Y-91774333D01*
X104276000Y-91679095D01*
X104323619Y-91631476D01*
X104418857Y-91583857D01*
X104561714Y-91583857D01*
X104656952Y-91631476D01*
X104704571Y-91679095D01*
X104752190Y-91774333D01*
X104752190Y-92155285D01*
X105228380Y-90631476D02*
X105228380Y-91202904D01*
X105228380Y-90917190D02*
X104228380Y-90917190D01*
X104371238Y-91012428D01*
X104466476Y-91107666D01*
X104514095Y-91202904D01*
X104228380Y-89726714D02*
X104228380Y-90202904D01*
X104704571Y-90250523D01*
X104656952Y-90202904D01*
X104609333Y-90107666D01*
X104609333Y-89869571D01*
X104656952Y-89774333D01*
X104704571Y-89726714D01*
X104799809Y-89679095D01*
X105037904Y-89679095D01*
X105133142Y-89726714D01*
X105180761Y-89774333D01*
X105228380Y-89869571D01*
X105228380Y-90107666D01*
X105180761Y-90202904D01*
X105133142Y-90250523D01*
%TO.C,R16*%
X162670142Y-83384380D02*
X162336809Y-82908190D01*
X162098714Y-83384380D02*
X162098714Y-82384380D01*
X162479666Y-82384380D01*
X162574904Y-82432000D01*
X162622523Y-82479619D01*
X162670142Y-82574857D01*
X162670142Y-82717714D01*
X162622523Y-82812952D01*
X162574904Y-82860571D01*
X162479666Y-82908190D01*
X162098714Y-82908190D01*
X163622523Y-83384380D02*
X163051095Y-83384380D01*
X163336809Y-83384380D02*
X163336809Y-82384380D01*
X163241571Y-82527238D01*
X163146333Y-82622476D01*
X163051095Y-82670095D01*
X164479666Y-82384380D02*
X164289190Y-82384380D01*
X164193952Y-82432000D01*
X164146333Y-82479619D01*
X164051095Y-82622476D01*
X164003476Y-82812952D01*
X164003476Y-83193904D01*
X164051095Y-83289142D01*
X164098714Y-83336761D01*
X164193952Y-83384380D01*
X164384428Y-83384380D01*
X164479666Y-83336761D01*
X164527285Y-83289142D01*
X164574904Y-83193904D01*
X164574904Y-82955809D01*
X164527285Y-82860571D01*
X164479666Y-82812952D01*
X164384428Y-82765333D01*
X164193952Y-82765333D01*
X164098714Y-82812952D01*
X164051095Y-82860571D01*
X164003476Y-82955809D01*
%TO.C,R17*%
X162924142Y-89226380D02*
X162590809Y-88750190D01*
X162352714Y-89226380D02*
X162352714Y-88226380D01*
X162733666Y-88226380D01*
X162828904Y-88274000D01*
X162876523Y-88321619D01*
X162924142Y-88416857D01*
X162924142Y-88559714D01*
X162876523Y-88654952D01*
X162828904Y-88702571D01*
X162733666Y-88750190D01*
X162352714Y-88750190D01*
X163876523Y-89226380D02*
X163305095Y-89226380D01*
X163590809Y-89226380D02*
X163590809Y-88226380D01*
X163495571Y-88369238D01*
X163400333Y-88464476D01*
X163305095Y-88512095D01*
X164209857Y-88226380D02*
X164876523Y-88226380D01*
X164447952Y-89226380D01*
%TO.C,RU1*%
X165934380Y-96448476D02*
X165458190Y-96781809D01*
X165934380Y-97019904D02*
X164934380Y-97019904D01*
X164934380Y-96638952D01*
X164982000Y-96543714D01*
X165029619Y-96496095D01*
X165124857Y-96448476D01*
X165267714Y-96448476D01*
X165362952Y-96496095D01*
X165410571Y-96543714D01*
X165458190Y-96638952D01*
X165458190Y-97019904D01*
X164934380Y-96019904D02*
X165743904Y-96019904D01*
X165839142Y-95972285D01*
X165886761Y-95924666D01*
X165934380Y-95829428D01*
X165934380Y-95638952D01*
X165886761Y-95543714D01*
X165839142Y-95496095D01*
X165743904Y-95448476D01*
X164934380Y-95448476D01*
X165934380Y-94448476D02*
X165934380Y-95019904D01*
X165934380Y-94734190D02*
X164934380Y-94734190D01*
X165077238Y-94829428D01*
X165172476Y-94924666D01*
X165220095Y-95019904D01*
%TO.C,SDCardModule1*%
X175870761Y-109846761D02*
X176013619Y-109894380D01*
X176251714Y-109894380D01*
X176346952Y-109846761D01*
X176394571Y-109799142D01*
X176442190Y-109703904D01*
X176442190Y-109608666D01*
X176394571Y-109513428D01*
X176346952Y-109465809D01*
X176251714Y-109418190D01*
X176061238Y-109370571D01*
X175966000Y-109322952D01*
X175918380Y-109275333D01*
X175870761Y-109180095D01*
X175870761Y-109084857D01*
X175918380Y-108989619D01*
X175966000Y-108942000D01*
X176061238Y-108894380D01*
X176299333Y-108894380D01*
X176442190Y-108942000D01*
X176870761Y-109894380D02*
X176870761Y-108894380D01*
X177108857Y-108894380D01*
X177251714Y-108942000D01*
X177346952Y-109037238D01*
X177394571Y-109132476D01*
X177442190Y-109322952D01*
X177442190Y-109465809D01*
X177394571Y-109656285D01*
X177346952Y-109751523D01*
X177251714Y-109846761D01*
X177108857Y-109894380D01*
X176870761Y-109894380D01*
X178442190Y-109799142D02*
X178394571Y-109846761D01*
X178251714Y-109894380D01*
X178156476Y-109894380D01*
X178013619Y-109846761D01*
X177918380Y-109751523D01*
X177870761Y-109656285D01*
X177823142Y-109465809D01*
X177823142Y-109322952D01*
X177870761Y-109132476D01*
X177918380Y-109037238D01*
X178013619Y-108942000D01*
X178156476Y-108894380D01*
X178251714Y-108894380D01*
X178394571Y-108942000D01*
X178442190Y-108989619D01*
X179299333Y-109894380D02*
X179299333Y-109370571D01*
X179251714Y-109275333D01*
X179156476Y-109227714D01*
X178966000Y-109227714D01*
X178870761Y-109275333D01*
X179299333Y-109846761D02*
X179204095Y-109894380D01*
X178966000Y-109894380D01*
X178870761Y-109846761D01*
X178823142Y-109751523D01*
X178823142Y-109656285D01*
X178870761Y-109561047D01*
X178966000Y-109513428D01*
X179204095Y-109513428D01*
X179299333Y-109465809D01*
X179775523Y-109894380D02*
X179775523Y-109227714D01*
X179775523Y-109418190D02*
X179823142Y-109322952D01*
X179870761Y-109275333D01*
X179966000Y-109227714D01*
X180061238Y-109227714D01*
X180823142Y-109894380D02*
X180823142Y-108894380D01*
X180823142Y-109846761D02*
X180727904Y-109894380D01*
X180537428Y-109894380D01*
X180442190Y-109846761D01*
X180394571Y-109799142D01*
X180346952Y-109703904D01*
X180346952Y-109418190D01*
X180394571Y-109322952D01*
X180442190Y-109275333D01*
X180537428Y-109227714D01*
X180727904Y-109227714D01*
X180823142Y-109275333D01*
X181299333Y-109894380D02*
X181299333Y-108894380D01*
X181632666Y-109608666D01*
X181966000Y-108894380D01*
X181966000Y-109894380D01*
X182585047Y-109894380D02*
X182489809Y-109846761D01*
X182442190Y-109799142D01*
X182394571Y-109703904D01*
X182394571Y-109418190D01*
X182442190Y-109322952D01*
X182489809Y-109275333D01*
X182585047Y-109227714D01*
X182727904Y-109227714D01*
X182823142Y-109275333D01*
X182870761Y-109322952D01*
X182918380Y-109418190D01*
X182918380Y-109703904D01*
X182870761Y-109799142D01*
X182823142Y-109846761D01*
X182727904Y-109894380D01*
X182585047Y-109894380D01*
X183775523Y-109894380D02*
X183775523Y-108894380D01*
X183775523Y-109846761D02*
X183680285Y-109894380D01*
X183489809Y-109894380D01*
X183394571Y-109846761D01*
X183346952Y-109799142D01*
X183299333Y-109703904D01*
X183299333Y-109418190D01*
X183346952Y-109322952D01*
X183394571Y-109275333D01*
X183489809Y-109227714D01*
X183680285Y-109227714D01*
X183775523Y-109275333D01*
X184680285Y-109227714D02*
X184680285Y-109894380D01*
X184251714Y-109227714D02*
X184251714Y-109751523D01*
X184299333Y-109846761D01*
X184394571Y-109894380D01*
X184537428Y-109894380D01*
X184632666Y-109846761D01*
X184680285Y-109799142D01*
X185299333Y-109894380D02*
X185204095Y-109846761D01*
X185156476Y-109751523D01*
X185156476Y-108894380D01*
X186061238Y-109846761D02*
X185966000Y-109894380D01*
X185775523Y-109894380D01*
X185680285Y-109846761D01*
X185632666Y-109751523D01*
X185632666Y-109370571D01*
X185680285Y-109275333D01*
X185775523Y-109227714D01*
X185966000Y-109227714D01*
X186061238Y-109275333D01*
X186108857Y-109370571D01*
X186108857Y-109465809D01*
X185632666Y-109561047D01*
X187061238Y-109894380D02*
X186489809Y-109894380D01*
X186775523Y-109894380D02*
X186775523Y-108894380D01*
X186680285Y-109037238D01*
X186585047Y-109132476D01*
X186489809Y-109180095D01*
%TO.C,SW1*%
X118893666Y-65086761D02*
X119036523Y-65134380D01*
X119274619Y-65134380D01*
X119369857Y-65086761D01*
X119417476Y-65039142D01*
X119465095Y-64943904D01*
X119465095Y-64848666D01*
X119417476Y-64753428D01*
X119369857Y-64705809D01*
X119274619Y-64658190D01*
X119084142Y-64610571D01*
X118988904Y-64562952D01*
X118941285Y-64515333D01*
X118893666Y-64420095D01*
X118893666Y-64324857D01*
X118941285Y-64229619D01*
X118988904Y-64182000D01*
X119084142Y-64134380D01*
X119322238Y-64134380D01*
X119465095Y-64182000D01*
X119798428Y-64134380D02*
X120036523Y-65134380D01*
X120227000Y-64420095D01*
X120417476Y-65134380D01*
X120655571Y-64134380D01*
X121560333Y-65134380D02*
X120988904Y-65134380D01*
X121274619Y-65134380D02*
X121274619Y-64134380D01*
X121179380Y-64277238D01*
X121084142Y-64372476D01*
X120988904Y-64420095D01*
%TO.C,SW2*%
X160972666Y-64412761D02*
X161115523Y-64460380D01*
X161353619Y-64460380D01*
X161448857Y-64412761D01*
X161496476Y-64365142D01*
X161544095Y-64269904D01*
X161544095Y-64174666D01*
X161496476Y-64079428D01*
X161448857Y-64031809D01*
X161353619Y-63984190D01*
X161163142Y-63936571D01*
X161067904Y-63888952D01*
X161020285Y-63841333D01*
X160972666Y-63746095D01*
X160972666Y-63650857D01*
X161020285Y-63555619D01*
X161067904Y-63508000D01*
X161163142Y-63460380D01*
X161401238Y-63460380D01*
X161544095Y-63508000D01*
X161877428Y-63460380D02*
X162115523Y-64460380D01*
X162306000Y-63746095D01*
X162496476Y-64460380D01*
X162734571Y-63460380D01*
X163067904Y-63555619D02*
X163115523Y-63508000D01*
X163210761Y-63460380D01*
X163448857Y-63460380D01*
X163544095Y-63508000D01*
X163591714Y-63555619D01*
X163639333Y-63650857D01*
X163639333Y-63746095D01*
X163591714Y-63888952D01*
X163020285Y-64460380D01*
X163639333Y-64460380D01*
%TO.C,SW3*%
X95472761Y-75755333D02*
X95520380Y-75612476D01*
X95520380Y-75374380D01*
X95472761Y-75279142D01*
X95425142Y-75231523D01*
X95329904Y-75183904D01*
X95234666Y-75183904D01*
X95139428Y-75231523D01*
X95091809Y-75279142D01*
X95044190Y-75374380D01*
X94996571Y-75564857D01*
X94948952Y-75660095D01*
X94901333Y-75707714D01*
X94806095Y-75755333D01*
X94710857Y-75755333D01*
X94615619Y-75707714D01*
X94568000Y-75660095D01*
X94520380Y-75564857D01*
X94520380Y-75326761D01*
X94568000Y-75183904D01*
X94520380Y-74850571D02*
X95520380Y-74612476D01*
X94806095Y-74422000D01*
X95520380Y-74231523D01*
X94520380Y-73993428D01*
X94520380Y-73707714D02*
X94520380Y-73088666D01*
X94901333Y-73422000D01*
X94901333Y-73279142D01*
X94948952Y-73183904D01*
X94996571Y-73136285D01*
X95091809Y-73088666D01*
X95329904Y-73088666D01*
X95425142Y-73136285D01*
X95472761Y-73183904D01*
X95520380Y-73279142D01*
X95520380Y-73564857D01*
X95472761Y-73660095D01*
X95425142Y-73707714D01*
%TO.C,SW4*%
X95472761Y-83883333D02*
X95520380Y-83740476D01*
X95520380Y-83502380D01*
X95472761Y-83407142D01*
X95425142Y-83359523D01*
X95329904Y-83311904D01*
X95234666Y-83311904D01*
X95139428Y-83359523D01*
X95091809Y-83407142D01*
X95044190Y-83502380D01*
X94996571Y-83692857D01*
X94948952Y-83788095D01*
X94901333Y-83835714D01*
X94806095Y-83883333D01*
X94710857Y-83883333D01*
X94615619Y-83835714D01*
X94568000Y-83788095D01*
X94520380Y-83692857D01*
X94520380Y-83454761D01*
X94568000Y-83311904D01*
X94520380Y-82978571D02*
X95520380Y-82740476D01*
X94806095Y-82550000D01*
X95520380Y-82359523D01*
X94520380Y-82121428D01*
X94853714Y-81311904D02*
X95520380Y-81311904D01*
X94472761Y-81550000D02*
X95187047Y-81788095D01*
X95187047Y-81169047D01*
%TO.C,SW5*%
X95472761Y-92011333D02*
X95520380Y-91868476D01*
X95520380Y-91630380D01*
X95472761Y-91535142D01*
X95425142Y-91487523D01*
X95329904Y-91439904D01*
X95234666Y-91439904D01*
X95139428Y-91487523D01*
X95091809Y-91535142D01*
X95044190Y-91630380D01*
X94996571Y-91820857D01*
X94948952Y-91916095D01*
X94901333Y-91963714D01*
X94806095Y-92011333D01*
X94710857Y-92011333D01*
X94615619Y-91963714D01*
X94568000Y-91916095D01*
X94520380Y-91820857D01*
X94520380Y-91582761D01*
X94568000Y-91439904D01*
X94520380Y-91106571D02*
X95520380Y-90868476D01*
X94806095Y-90678000D01*
X95520380Y-90487523D01*
X94520380Y-90249428D01*
X94520380Y-89392285D02*
X94520380Y-89868476D01*
X94996571Y-89916095D01*
X94948952Y-89868476D01*
X94901333Y-89773238D01*
X94901333Y-89535142D01*
X94948952Y-89439904D01*
X94996571Y-89392285D01*
X95091809Y-89344666D01*
X95329904Y-89344666D01*
X95425142Y-89392285D01*
X95472761Y-89439904D01*
X95520380Y-89535142D01*
X95520380Y-89773238D01*
X95472761Y-89868476D01*
X95425142Y-89916095D01*
%TO.C,SW6*%
X95472761Y-100139333D02*
X95520380Y-99996476D01*
X95520380Y-99758380D01*
X95472761Y-99663142D01*
X95425142Y-99615523D01*
X95329904Y-99567904D01*
X95234666Y-99567904D01*
X95139428Y-99615523D01*
X95091809Y-99663142D01*
X95044190Y-99758380D01*
X94996571Y-99948857D01*
X94948952Y-100044095D01*
X94901333Y-100091714D01*
X94806095Y-100139333D01*
X94710857Y-100139333D01*
X94615619Y-100091714D01*
X94568000Y-100044095D01*
X94520380Y-99948857D01*
X94520380Y-99710761D01*
X94568000Y-99567904D01*
X94520380Y-99234571D02*
X95520380Y-98996476D01*
X94806095Y-98806000D01*
X95520380Y-98615523D01*
X94520380Y-98377428D01*
X94520380Y-97567904D02*
X94520380Y-97758380D01*
X94568000Y-97853619D01*
X94615619Y-97901238D01*
X94758476Y-97996476D01*
X94948952Y-98044095D01*
X95329904Y-98044095D01*
X95425142Y-97996476D01*
X95472761Y-97948857D01*
X95520380Y-97853619D01*
X95520380Y-97663142D01*
X95472761Y-97567904D01*
X95425142Y-97520285D01*
X95329904Y-97472666D01*
X95091809Y-97472666D01*
X94996571Y-97520285D01*
X94948952Y-97567904D01*
X94901333Y-97663142D01*
X94901333Y-97853619D01*
X94948952Y-97948857D01*
X94996571Y-97996476D01*
X95091809Y-98044095D01*
%TO.C,U1*%
X185928095Y-85558380D02*
X185928095Y-86367904D01*
X185975714Y-86463142D01*
X186023333Y-86510761D01*
X186118571Y-86558380D01*
X186309047Y-86558380D01*
X186404285Y-86510761D01*
X186451904Y-86463142D01*
X186499523Y-86367904D01*
X186499523Y-85558380D01*
X187499523Y-86558380D02*
X186928095Y-86558380D01*
X187213809Y-86558380D02*
X187213809Y-85558380D01*
X187118571Y-85701238D01*
X187023333Y-85796476D01*
X186928095Y-85844095D01*
%TO.C,USB-UART1*%
X146177523Y-79972380D02*
X146177523Y-80781904D01*
X146225142Y-80877142D01*
X146272761Y-80924761D01*
X146368000Y-80972380D01*
X146558476Y-80972380D01*
X146653714Y-80924761D01*
X146701333Y-80877142D01*
X146748952Y-80781904D01*
X146748952Y-79972380D01*
X147177523Y-80924761D02*
X147320380Y-80972380D01*
X147558476Y-80972380D01*
X147653714Y-80924761D01*
X147701333Y-80877142D01*
X147748952Y-80781904D01*
X147748952Y-80686666D01*
X147701333Y-80591428D01*
X147653714Y-80543809D01*
X147558476Y-80496190D01*
X147368000Y-80448571D01*
X147272761Y-80400952D01*
X147225142Y-80353333D01*
X147177523Y-80258095D01*
X147177523Y-80162857D01*
X147225142Y-80067619D01*
X147272761Y-80020000D01*
X147368000Y-79972380D01*
X147606095Y-79972380D01*
X147748952Y-80020000D01*
X148510857Y-80448571D02*
X148653714Y-80496190D01*
X148701333Y-80543809D01*
X148748952Y-80639047D01*
X148748952Y-80781904D01*
X148701333Y-80877142D01*
X148653714Y-80924761D01*
X148558476Y-80972380D01*
X148177523Y-80972380D01*
X148177523Y-79972380D01*
X148510857Y-79972380D01*
X148606095Y-80020000D01*
X148653714Y-80067619D01*
X148701333Y-80162857D01*
X148701333Y-80258095D01*
X148653714Y-80353333D01*
X148606095Y-80400952D01*
X148510857Y-80448571D01*
X148177523Y-80448571D01*
X149177523Y-80591428D02*
X149939428Y-80591428D01*
X150415619Y-79972380D02*
X150415619Y-80781904D01*
X150463238Y-80877142D01*
X150510857Y-80924761D01*
X150606095Y-80972380D01*
X150796571Y-80972380D01*
X150891809Y-80924761D01*
X150939428Y-80877142D01*
X150987047Y-80781904D01*
X150987047Y-79972380D01*
X151415619Y-80686666D02*
X151891809Y-80686666D01*
X151320380Y-80972380D02*
X151653714Y-79972380D01*
X151987047Y-80972380D01*
X152891809Y-80972380D02*
X152558476Y-80496190D01*
X152320380Y-80972380D02*
X152320380Y-79972380D01*
X152701333Y-79972380D01*
X152796571Y-80020000D01*
X152844190Y-80067619D01*
X152891809Y-80162857D01*
X152891809Y-80305714D01*
X152844190Y-80400952D01*
X152796571Y-80448571D01*
X152701333Y-80496190D01*
X152320380Y-80496190D01*
X153177523Y-79972380D02*
X153748952Y-79972380D01*
X153463238Y-80972380D02*
X153463238Y-79972380D01*
X154606095Y-80972380D02*
X154034666Y-80972380D01*
X154320380Y-80972380D02*
X154320380Y-79972380D01*
X154225142Y-80115238D01*
X154129904Y-80210476D01*
X154034666Y-80258095D01*
%TO.C,USBASP1*%
X135629142Y-101084380D02*
X135629142Y-101893904D01*
X135676761Y-101989142D01*
X135724380Y-102036761D01*
X135819619Y-102084380D01*
X136010095Y-102084380D01*
X136105333Y-102036761D01*
X136152952Y-101989142D01*
X136200571Y-101893904D01*
X136200571Y-101084380D01*
X136629142Y-102036761D02*
X136772000Y-102084380D01*
X137010095Y-102084380D01*
X137105333Y-102036761D01*
X137152952Y-101989142D01*
X137200571Y-101893904D01*
X137200571Y-101798666D01*
X137152952Y-101703428D01*
X137105333Y-101655809D01*
X137010095Y-101608190D01*
X136819619Y-101560571D01*
X136724380Y-101512952D01*
X136676761Y-101465333D01*
X136629142Y-101370095D01*
X136629142Y-101274857D01*
X136676761Y-101179619D01*
X136724380Y-101132000D01*
X136819619Y-101084380D01*
X137057714Y-101084380D01*
X137200571Y-101132000D01*
X137962476Y-101560571D02*
X138105333Y-101608190D01*
X138152952Y-101655809D01*
X138200571Y-101751047D01*
X138200571Y-101893904D01*
X138152952Y-101989142D01*
X138105333Y-102036761D01*
X138010095Y-102084380D01*
X137629142Y-102084380D01*
X137629142Y-101084380D01*
X137962476Y-101084380D01*
X138057714Y-101132000D01*
X138105333Y-101179619D01*
X138152952Y-101274857D01*
X138152952Y-101370095D01*
X138105333Y-101465333D01*
X138057714Y-101512952D01*
X137962476Y-101560571D01*
X137629142Y-101560571D01*
X138581523Y-101798666D02*
X139057714Y-101798666D01*
X138486285Y-102084380D02*
X138819619Y-101084380D01*
X139152952Y-102084380D01*
X139438666Y-102036761D02*
X139581523Y-102084380D01*
X139819619Y-102084380D01*
X139914857Y-102036761D01*
X139962476Y-101989142D01*
X140010095Y-101893904D01*
X140010095Y-101798666D01*
X139962476Y-101703428D01*
X139914857Y-101655809D01*
X139819619Y-101608190D01*
X139629142Y-101560571D01*
X139533904Y-101512952D01*
X139486285Y-101465333D01*
X139438666Y-101370095D01*
X139438666Y-101274857D01*
X139486285Y-101179619D01*
X139533904Y-101132000D01*
X139629142Y-101084380D01*
X139867238Y-101084380D01*
X140010095Y-101132000D01*
X140438666Y-102084380D02*
X140438666Y-101084380D01*
X140819619Y-101084380D01*
X140914857Y-101132000D01*
X140962476Y-101179619D01*
X141010095Y-101274857D01*
X141010095Y-101417714D01*
X140962476Y-101512952D01*
X140914857Y-101560571D01*
X140819619Y-101608190D01*
X140438666Y-101608190D01*
X141962476Y-102084380D02*
X141391047Y-102084380D01*
X141676761Y-102084380D02*
X141676761Y-101084380D01*
X141581523Y-101227238D01*
X141486285Y-101322476D01*
X141391047Y-101370095D01*
%TO.C,USBASP2*%
X135629142Y-110704380D02*
X135629142Y-111513904D01*
X135676761Y-111609142D01*
X135724380Y-111656761D01*
X135819619Y-111704380D01*
X136010095Y-111704380D01*
X136105333Y-111656761D01*
X136152952Y-111609142D01*
X136200571Y-111513904D01*
X136200571Y-110704380D01*
X136629142Y-111656761D02*
X136772000Y-111704380D01*
X137010095Y-111704380D01*
X137105333Y-111656761D01*
X137152952Y-111609142D01*
X137200571Y-111513904D01*
X137200571Y-111418666D01*
X137152952Y-111323428D01*
X137105333Y-111275809D01*
X137010095Y-111228190D01*
X136819619Y-111180571D01*
X136724380Y-111132952D01*
X136676761Y-111085333D01*
X136629142Y-110990095D01*
X136629142Y-110894857D01*
X136676761Y-110799619D01*
X136724380Y-110752000D01*
X136819619Y-110704380D01*
X137057714Y-110704380D01*
X137200571Y-110752000D01*
X137962476Y-111180571D02*
X138105333Y-111228190D01*
X138152952Y-111275809D01*
X138200571Y-111371047D01*
X138200571Y-111513904D01*
X138152952Y-111609142D01*
X138105333Y-111656761D01*
X138010095Y-111704380D01*
X137629142Y-111704380D01*
X137629142Y-110704380D01*
X137962476Y-110704380D01*
X138057714Y-110752000D01*
X138105333Y-110799619D01*
X138152952Y-110894857D01*
X138152952Y-110990095D01*
X138105333Y-111085333D01*
X138057714Y-111132952D01*
X137962476Y-111180571D01*
X137629142Y-111180571D01*
X138581523Y-111418666D02*
X139057714Y-111418666D01*
X138486285Y-111704380D02*
X138819619Y-110704380D01*
X139152952Y-111704380D01*
X139438666Y-111656761D02*
X139581523Y-111704380D01*
X139819619Y-111704380D01*
X139914857Y-111656761D01*
X139962476Y-111609142D01*
X140010095Y-111513904D01*
X140010095Y-111418666D01*
X139962476Y-111323428D01*
X139914857Y-111275809D01*
X139819619Y-111228190D01*
X139629142Y-111180571D01*
X139533904Y-111132952D01*
X139486285Y-111085333D01*
X139438666Y-110990095D01*
X139438666Y-110894857D01*
X139486285Y-110799619D01*
X139533904Y-110752000D01*
X139629142Y-110704380D01*
X139867238Y-110704380D01*
X140010095Y-110752000D01*
X140438666Y-111704380D02*
X140438666Y-110704380D01*
X140819619Y-110704380D01*
X140914857Y-110752000D01*
X140962476Y-110799619D01*
X141010095Y-110894857D01*
X141010095Y-111037714D01*
X140962476Y-111132952D01*
X140914857Y-111180571D01*
X140819619Y-111228190D01*
X140438666Y-111228190D01*
X141391047Y-110799619D02*
X141438666Y-110752000D01*
X141533904Y-110704380D01*
X141772000Y-110704380D01*
X141867238Y-110752000D01*
X141914857Y-110799619D01*
X141962476Y-110894857D01*
X141962476Y-110990095D01*
X141914857Y-111132952D01*
X141343428Y-111704380D01*
X141962476Y-111704380D01*
%TO.C,V+1*%
X186936380Y-78898571D02*
X187936380Y-78565238D01*
X186936380Y-78231904D01*
X187555428Y-77898571D02*
X187555428Y-77136666D01*
X187936380Y-77517619D02*
X187174476Y-77517619D01*
X187936380Y-76136666D02*
X187936380Y-76708095D01*
X187936380Y-76422380D02*
X186936380Y-76422380D01*
X187079238Y-76517619D01*
X187174476Y-76612857D01*
X187222095Y-76708095D01*
%TO.C,V-1*%
X186936380Y-74326571D02*
X187936380Y-73993238D01*
X186936380Y-73659904D01*
X187555428Y-73326571D02*
X187555428Y-72564666D01*
X187936380Y-71564666D02*
X187936380Y-72136095D01*
X187936380Y-71850380D02*
X186936380Y-71850380D01*
X187079238Y-71945619D01*
X187174476Y-72040857D01*
X187222095Y-72136095D01*
%TD*%
M02*
