%TF.GenerationSoftware,KiCad,Pcbnew,(5.1.6)-1*%
%TF.CreationDate,2020-08-17T15:22:46+07:00*%
%TF.ProjectId,desain150820,64657361-696e-4313-9530-3832302e6b69,v01*%
%TF.SameCoordinates,Original*%
%TF.FileFunction,Glue,Bot*%
%TF.FilePolarity,Positive*%
%FSLAX46Y46*%
G04 Gerber Fmt 4.6, Leading zero omitted, Abs format (unit mm)*
G04 Created by KiCad (PCBNEW (5.1.6)-1) date 2020-08-17 15:22:46*
%MOMM*%
%LPD*%
G01*
G04 APERTURE LIST*
%ADD10C,0.150000*%
G04 APERTURE END LIST*
D10*
X160977104Y-108406180D02*
X160977104Y-109215704D01*
X160929485Y-109310942D01*
X160881866Y-109358561D01*
X160786628Y-109406180D01*
X160596152Y-109406180D01*
X160500914Y-109358561D01*
X160453295Y-109310942D01*
X160405676Y-109215704D01*
X160405676Y-108406180D01*
X159977104Y-109358561D02*
X159834247Y-109406180D01*
X159596152Y-109406180D01*
X159500914Y-109358561D01*
X159453295Y-109310942D01*
X159405676Y-109215704D01*
X159405676Y-109120466D01*
X159453295Y-109025228D01*
X159500914Y-108977609D01*
X159596152Y-108929990D01*
X159786628Y-108882371D01*
X159881866Y-108834752D01*
X159929485Y-108787133D01*
X159977104Y-108691895D01*
X159977104Y-108596657D01*
X159929485Y-108501419D01*
X159881866Y-108453800D01*
X159786628Y-108406180D01*
X159548533Y-108406180D01*
X159405676Y-108453800D01*
X158643771Y-108882371D02*
X158500914Y-108929990D01*
X158453295Y-108977609D01*
X158405676Y-109072847D01*
X158405676Y-109215704D01*
X158453295Y-109310942D01*
X158500914Y-109358561D01*
X158596152Y-109406180D01*
X158977104Y-109406180D01*
X158977104Y-108406180D01*
X158643771Y-108406180D01*
X158548533Y-108453800D01*
X158500914Y-108501419D01*
X158453295Y-108596657D01*
X158453295Y-108691895D01*
X158500914Y-108787133D01*
X158548533Y-108834752D01*
X158643771Y-108882371D01*
X158977104Y-108882371D01*
X162953295Y-110532371D02*
X163286628Y-110532371D01*
X163286628Y-111056180D02*
X163286628Y-110056180D01*
X162810438Y-110056180D01*
X162286628Y-111056180D02*
X162381866Y-111008561D01*
X162429485Y-110913323D01*
X162429485Y-110056180D01*
X161477104Y-111056180D02*
X161477104Y-110532371D01*
X161524723Y-110437133D01*
X161619961Y-110389514D01*
X161810438Y-110389514D01*
X161905676Y-110437133D01*
X161477104Y-111008561D02*
X161572342Y-111056180D01*
X161810438Y-111056180D01*
X161905676Y-111008561D01*
X161953295Y-110913323D01*
X161953295Y-110818085D01*
X161905676Y-110722847D01*
X161810438Y-110675228D01*
X161572342Y-110675228D01*
X161477104Y-110627609D01*
X161048533Y-111008561D02*
X160953295Y-111056180D01*
X160762819Y-111056180D01*
X160667580Y-111008561D01*
X160619961Y-110913323D01*
X160619961Y-110865704D01*
X160667580Y-110770466D01*
X160762819Y-110722847D01*
X160905676Y-110722847D01*
X161000914Y-110675228D01*
X161048533Y-110579990D01*
X161048533Y-110532371D01*
X161000914Y-110437133D01*
X160905676Y-110389514D01*
X160762819Y-110389514D01*
X160667580Y-110437133D01*
X160191390Y-111056180D02*
X160191390Y-110056180D01*
X159762819Y-111056180D02*
X159762819Y-110532371D01*
X159810438Y-110437133D01*
X159905676Y-110389514D01*
X160048533Y-110389514D01*
X160143771Y-110437133D01*
X160191390Y-110484752D01*
X158524723Y-110532371D02*
X158191390Y-110532371D01*
X158048533Y-111056180D02*
X158524723Y-111056180D01*
X158524723Y-110056180D01*
X158048533Y-110056180D01*
X157667580Y-111008561D02*
X157524723Y-111056180D01*
X157286628Y-111056180D01*
X157191390Y-111008561D01*
X157143771Y-110960942D01*
X157096152Y-110865704D01*
X157096152Y-110770466D01*
X157143771Y-110675228D01*
X157191390Y-110627609D01*
X157286628Y-110579990D01*
X157477104Y-110532371D01*
X157572342Y-110484752D01*
X157619961Y-110437133D01*
X157667580Y-110341895D01*
X157667580Y-110246657D01*
X157619961Y-110151419D01*
X157572342Y-110103800D01*
X157477104Y-110056180D01*
X157239009Y-110056180D01*
X157096152Y-110103800D01*
X156667580Y-111056180D02*
X156667580Y-110056180D01*
X156286628Y-110056180D01*
X156191390Y-110103800D01*
X156143771Y-110151419D01*
X156096152Y-110246657D01*
X156096152Y-110389514D01*
X156143771Y-110484752D01*
X156191390Y-110532371D01*
X156286628Y-110579990D01*
X156667580Y-110579990D01*
X184846552Y-110894761D02*
X184703695Y-110942380D01*
X184465600Y-110942380D01*
X184370361Y-110894761D01*
X184322742Y-110847142D01*
X184275123Y-110751904D01*
X184275123Y-110656666D01*
X184322742Y-110561428D01*
X184370361Y-110513809D01*
X184465600Y-110466190D01*
X184656076Y-110418571D01*
X184751314Y-110370952D01*
X184798933Y-110323333D01*
X184846552Y-110228095D01*
X184846552Y-110132857D01*
X184798933Y-110037619D01*
X184751314Y-109990000D01*
X184656076Y-109942380D01*
X184417980Y-109942380D01*
X184275123Y-109990000D01*
X183846552Y-110942380D02*
X183846552Y-109942380D01*
X183608457Y-109942380D01*
X183465600Y-109990000D01*
X183370361Y-110085238D01*
X183322742Y-110180476D01*
X183275123Y-110370952D01*
X183275123Y-110513809D01*
X183322742Y-110704285D01*
X183370361Y-110799523D01*
X183465600Y-110894761D01*
X183608457Y-110942380D01*
X183846552Y-110942380D01*
X181513219Y-110847142D02*
X181560838Y-110894761D01*
X181703695Y-110942380D01*
X181798933Y-110942380D01*
X181941790Y-110894761D01*
X182037028Y-110799523D01*
X182084647Y-110704285D01*
X182132266Y-110513809D01*
X182132266Y-110370952D01*
X182084647Y-110180476D01*
X182037028Y-110085238D01*
X181941790Y-109990000D01*
X181798933Y-109942380D01*
X181703695Y-109942380D01*
X181560838Y-109990000D01*
X181513219Y-110037619D01*
X180656076Y-110942380D02*
X180656076Y-110418571D01*
X180703695Y-110323333D01*
X180798933Y-110275714D01*
X180989409Y-110275714D01*
X181084647Y-110323333D01*
X180656076Y-110894761D02*
X180751314Y-110942380D01*
X180989409Y-110942380D01*
X181084647Y-110894761D01*
X181132266Y-110799523D01*
X181132266Y-110704285D01*
X181084647Y-110609047D01*
X180989409Y-110561428D01*
X180751314Y-110561428D01*
X180656076Y-110513809D01*
X180179885Y-110942380D02*
X180179885Y-110275714D01*
X180179885Y-110466190D02*
X180132266Y-110370952D01*
X180084647Y-110323333D01*
X179989409Y-110275714D01*
X179894171Y-110275714D01*
X179132266Y-110942380D02*
X179132266Y-109942380D01*
X179132266Y-110894761D02*
X179227504Y-110942380D01*
X179417980Y-110942380D01*
X179513219Y-110894761D01*
X179560838Y-110847142D01*
X179608457Y-110751904D01*
X179608457Y-110466190D01*
X179560838Y-110370952D01*
X179513219Y-110323333D01*
X179417980Y-110275714D01*
X179227504Y-110275714D01*
X179132266Y-110323333D01*
X147036323Y-109586780D02*
X147036323Y-110396304D01*
X146988704Y-110491542D01*
X146941085Y-110539161D01*
X146845847Y-110586780D01*
X146655371Y-110586780D01*
X146560133Y-110539161D01*
X146512514Y-110491542D01*
X146464895Y-110396304D01*
X146464895Y-109586780D01*
X146036323Y-110539161D02*
X145893466Y-110586780D01*
X145655371Y-110586780D01*
X145560133Y-110539161D01*
X145512514Y-110491542D01*
X145464895Y-110396304D01*
X145464895Y-110301066D01*
X145512514Y-110205828D01*
X145560133Y-110158209D01*
X145655371Y-110110590D01*
X145845847Y-110062971D01*
X145941085Y-110015352D01*
X145988704Y-109967733D01*
X146036323Y-109872495D01*
X146036323Y-109777257D01*
X145988704Y-109682019D01*
X145941085Y-109634400D01*
X145845847Y-109586780D01*
X145607752Y-109586780D01*
X145464895Y-109634400D01*
X144702990Y-110062971D02*
X144560133Y-110110590D01*
X144512514Y-110158209D01*
X144464895Y-110253447D01*
X144464895Y-110396304D01*
X144512514Y-110491542D01*
X144560133Y-110539161D01*
X144655371Y-110586780D01*
X145036323Y-110586780D01*
X145036323Y-109586780D01*
X144702990Y-109586780D01*
X144607752Y-109634400D01*
X144560133Y-109682019D01*
X144512514Y-109777257D01*
X144512514Y-109872495D01*
X144560133Y-109967733D01*
X144607752Y-110015352D01*
X144702990Y-110062971D01*
X145036323Y-110062971D01*
X144083942Y-110301066D02*
X143607752Y-110301066D01*
X144179180Y-110586780D02*
X143845847Y-109586780D01*
X143512514Y-110586780D01*
X143226800Y-110539161D02*
X143083942Y-110586780D01*
X142845847Y-110586780D01*
X142750609Y-110539161D01*
X142702990Y-110491542D01*
X142655371Y-110396304D01*
X142655371Y-110301066D01*
X142702990Y-110205828D01*
X142750609Y-110158209D01*
X142845847Y-110110590D01*
X143036323Y-110062971D01*
X143131561Y-110015352D01*
X143179180Y-109967733D01*
X143226800Y-109872495D01*
X143226800Y-109777257D01*
X143179180Y-109682019D01*
X143131561Y-109634400D01*
X143036323Y-109586780D01*
X142798228Y-109586780D01*
X142655371Y-109634400D01*
X142226800Y-110586780D02*
X142226800Y-109586780D01*
X141845847Y-109586780D01*
X141750609Y-109634400D01*
X141702990Y-109682019D01*
X141655371Y-109777257D01*
X141655371Y-109920114D01*
X141702990Y-110015352D01*
X141750609Y-110062971D01*
X141845847Y-110110590D01*
X142226800Y-110110590D01*
X140179180Y-110967733D02*
X140226800Y-110920114D01*
X140322038Y-110777257D01*
X140369657Y-110682019D01*
X140417276Y-110539161D01*
X140464895Y-110301066D01*
X140464895Y-110110590D01*
X140417276Y-109872495D01*
X140369657Y-109729638D01*
X140322038Y-109634400D01*
X140226800Y-109491542D01*
X140179180Y-109443923D01*
X139464895Y-110062971D02*
X139798228Y-110062971D01*
X139798228Y-110586780D02*
X139798228Y-109586780D01*
X139322038Y-109586780D01*
X138798228Y-110586780D02*
X138893466Y-110539161D01*
X138941085Y-110443923D01*
X138941085Y-109586780D01*
X137988704Y-110586780D02*
X137988704Y-110062971D01*
X138036323Y-109967733D01*
X138131561Y-109920114D01*
X138322038Y-109920114D01*
X138417276Y-109967733D01*
X137988704Y-110539161D02*
X138083942Y-110586780D01*
X138322038Y-110586780D01*
X138417276Y-110539161D01*
X138464895Y-110443923D01*
X138464895Y-110348685D01*
X138417276Y-110253447D01*
X138322038Y-110205828D01*
X138083942Y-110205828D01*
X137988704Y-110158209D01*
X137560133Y-110539161D02*
X137464895Y-110586780D01*
X137274419Y-110586780D01*
X137179180Y-110539161D01*
X137131561Y-110443923D01*
X137131561Y-110396304D01*
X137179180Y-110301066D01*
X137274419Y-110253447D01*
X137417276Y-110253447D01*
X137512514Y-110205828D01*
X137560133Y-110110590D01*
X137560133Y-110062971D01*
X137512514Y-109967733D01*
X137417276Y-109920114D01*
X137274419Y-109920114D01*
X137179180Y-109967733D01*
X136702990Y-110586780D02*
X136702990Y-109586780D01*
X136274419Y-110586780D02*
X136274419Y-110062971D01*
X136322038Y-109967733D01*
X136417276Y-109920114D01*
X136560133Y-109920114D01*
X136655371Y-109967733D01*
X136702990Y-110015352D01*
X135083942Y-110301066D02*
X134607752Y-110301066D01*
X135179180Y-110586780D02*
X134845847Y-109586780D01*
X134512514Y-110586780D01*
X134322038Y-109586780D02*
X133750609Y-109586780D01*
X134036323Y-110586780D02*
X134036323Y-109586780D01*
X133417276Y-110586780D02*
X133417276Y-109586780D01*
X133083942Y-110301066D01*
X132750609Y-109586780D01*
X132750609Y-110586780D01*
X131893466Y-110539161D02*
X131988704Y-110586780D01*
X132179180Y-110586780D01*
X132274419Y-110539161D01*
X132322038Y-110443923D01*
X132322038Y-110062971D01*
X132274419Y-109967733D01*
X132179180Y-109920114D01*
X131988704Y-109920114D01*
X131893466Y-109967733D01*
X131845847Y-110062971D01*
X131845847Y-110158209D01*
X132322038Y-110253447D01*
X130988704Y-109920114D02*
X130988704Y-110729638D01*
X131036323Y-110824876D01*
X131083942Y-110872495D01*
X131179180Y-110920114D01*
X131322038Y-110920114D01*
X131417276Y-110872495D01*
X130988704Y-110539161D02*
X131083942Y-110586780D01*
X131274419Y-110586780D01*
X131369657Y-110539161D01*
X131417276Y-110491542D01*
X131464895Y-110396304D01*
X131464895Y-110110590D01*
X131417276Y-110015352D01*
X131369657Y-109967733D01*
X131274419Y-109920114D01*
X131083942Y-109920114D01*
X130988704Y-109967733D01*
X130083942Y-110586780D02*
X130083942Y-110062971D01*
X130131561Y-109967733D01*
X130226800Y-109920114D01*
X130417276Y-109920114D01*
X130512514Y-109967733D01*
X130083942Y-110539161D02*
X130179180Y-110586780D01*
X130417276Y-110586780D01*
X130512514Y-110539161D01*
X130560133Y-110443923D01*
X130560133Y-110348685D01*
X130512514Y-110253447D01*
X130417276Y-110205828D01*
X130179180Y-110205828D01*
X130083942Y-110158209D01*
X129702990Y-110967733D02*
X129655371Y-110920114D01*
X129560133Y-110777257D01*
X129512514Y-110682019D01*
X129464895Y-110539161D01*
X129417276Y-110301066D01*
X129417276Y-110110590D01*
X129464895Y-109872495D01*
X129512514Y-109729638D01*
X129560133Y-109634400D01*
X129655371Y-109491542D01*
X129702990Y-109443923D01*
X188031428Y-72720247D02*
X188031428Y-73482152D01*
X188340952Y-77541428D02*
X187579047Y-77541428D01*
X187960000Y-77922380D02*
X187960000Y-77160476D01*
X192019180Y-72849123D02*
X191019180Y-72849123D01*
X192019180Y-73325314D02*
X191019180Y-73325314D01*
X192019180Y-73896742D01*
X191019180Y-73896742D01*
X192019180Y-74372933D02*
X191019180Y-74372933D01*
X191019180Y-74753885D01*
X191066800Y-74849123D01*
X191114419Y-74896742D01*
X191209657Y-74944361D01*
X191352514Y-74944361D01*
X191447752Y-74896742D01*
X191495371Y-74849123D01*
X191542990Y-74753885D01*
X191542990Y-74372933D01*
X192019180Y-76182457D02*
X192019180Y-76372933D01*
X191971561Y-76468171D01*
X191923942Y-76515790D01*
X191781085Y-76611028D01*
X191590609Y-76658647D01*
X191209657Y-76658647D01*
X191114419Y-76611028D01*
X191066800Y-76563409D01*
X191019180Y-76468171D01*
X191019180Y-76277695D01*
X191066800Y-76182457D01*
X191114419Y-76134838D01*
X191209657Y-76087219D01*
X191447752Y-76087219D01*
X191542990Y-76134838D01*
X191590609Y-76182457D01*
X191638228Y-76277695D01*
X191638228Y-76468171D01*
X191590609Y-76563409D01*
X191542990Y-76611028D01*
X191447752Y-76658647D01*
X191019180Y-77706266D02*
X192019180Y-78039600D01*
X191019180Y-78372933D01*
X170708342Y-63901580D02*
X171041676Y-63425390D01*
X171279771Y-63901580D02*
X171279771Y-62901580D01*
X170898819Y-62901580D01*
X170803580Y-62949200D01*
X170755961Y-62996819D01*
X170708342Y-63092057D01*
X170708342Y-63234914D01*
X170755961Y-63330152D01*
X170803580Y-63377771D01*
X170898819Y-63425390D01*
X171279771Y-63425390D01*
X170327390Y-63853961D02*
X170184533Y-63901580D01*
X169946438Y-63901580D01*
X169851200Y-63853961D01*
X169803580Y-63806342D01*
X169755961Y-63711104D01*
X169755961Y-63615866D01*
X169803580Y-63520628D01*
X169851200Y-63473009D01*
X169946438Y-63425390D01*
X170136914Y-63377771D01*
X170232152Y-63330152D01*
X170279771Y-63282533D01*
X170327390Y-63187295D01*
X170327390Y-63092057D01*
X170279771Y-62996819D01*
X170232152Y-62949200D01*
X170136914Y-62901580D01*
X169898819Y-62901580D01*
X169755961Y-62949200D01*
X169470247Y-62901580D02*
X168898819Y-62901580D01*
X169184533Y-63901580D02*
X169184533Y-62901580D01*
X167803580Y-63377771D02*
X167470247Y-63377771D01*
X167327390Y-63901580D02*
X167803580Y-63901580D01*
X167803580Y-62901580D01*
X167327390Y-62901580D01*
X166946438Y-63853961D02*
X166803580Y-63901580D01*
X166565485Y-63901580D01*
X166470247Y-63853961D01*
X166422628Y-63806342D01*
X166375009Y-63711104D01*
X166375009Y-63615866D01*
X166422628Y-63520628D01*
X166470247Y-63473009D01*
X166565485Y-63425390D01*
X166755961Y-63377771D01*
X166851200Y-63330152D01*
X166898819Y-63282533D01*
X166946438Y-63187295D01*
X166946438Y-63092057D01*
X166898819Y-62996819D01*
X166851200Y-62949200D01*
X166755961Y-62901580D01*
X166517866Y-62901580D01*
X166375009Y-62949200D01*
X165946438Y-63901580D02*
X165946438Y-62901580D01*
X165565485Y-62901580D01*
X165470247Y-62949200D01*
X165422628Y-62996819D01*
X165375009Y-63092057D01*
X165375009Y-63234914D01*
X165422628Y-63330152D01*
X165470247Y-63377771D01*
X165565485Y-63425390D01*
X165946438Y-63425390D01*
X129928571Y-63377771D02*
X129785714Y-63425390D01*
X129738095Y-63473009D01*
X129690476Y-63568247D01*
X129690476Y-63711104D01*
X129738095Y-63806342D01*
X129785714Y-63853961D01*
X129880952Y-63901580D01*
X130261904Y-63901580D01*
X130261904Y-62901580D01*
X129928571Y-62901580D01*
X129833333Y-62949200D01*
X129785714Y-62996819D01*
X129738095Y-63092057D01*
X129738095Y-63187295D01*
X129785714Y-63282533D01*
X129833333Y-63330152D01*
X129928571Y-63377771D01*
X130261904Y-63377771D01*
X129119047Y-63901580D02*
X129214285Y-63853961D01*
X129261904Y-63806342D01*
X129309523Y-63711104D01*
X129309523Y-63425390D01*
X129261904Y-63330152D01*
X129214285Y-63282533D01*
X129119047Y-63234914D01*
X128976190Y-63234914D01*
X128880952Y-63282533D01*
X128833333Y-63330152D01*
X128785714Y-63425390D01*
X128785714Y-63711104D01*
X128833333Y-63806342D01*
X128880952Y-63853961D01*
X128976190Y-63901580D01*
X129119047Y-63901580D01*
X128214285Y-63901580D02*
X128309523Y-63853961D01*
X128357142Y-63806342D01*
X128404761Y-63711104D01*
X128404761Y-63425390D01*
X128357142Y-63330152D01*
X128309523Y-63282533D01*
X128214285Y-63234914D01*
X128071428Y-63234914D01*
X127976190Y-63282533D01*
X127928571Y-63330152D01*
X127880952Y-63425390D01*
X127880952Y-63711104D01*
X127928571Y-63806342D01*
X127976190Y-63853961D01*
X128071428Y-63901580D01*
X128214285Y-63901580D01*
X127595238Y-63234914D02*
X127214285Y-63234914D01*
X127452380Y-62901580D02*
X127452380Y-63758723D01*
X127404761Y-63853961D01*
X127309523Y-63901580D01*
X127214285Y-63901580D01*
X126119047Y-63377771D02*
X125785714Y-63377771D01*
X125642857Y-63901580D02*
X126119047Y-63901580D01*
X126119047Y-62901580D01*
X125642857Y-62901580D01*
X125261904Y-63853961D02*
X125119047Y-63901580D01*
X124880952Y-63901580D01*
X124785714Y-63853961D01*
X124738095Y-63806342D01*
X124690476Y-63711104D01*
X124690476Y-63615866D01*
X124738095Y-63520628D01*
X124785714Y-63473009D01*
X124880952Y-63425390D01*
X125071428Y-63377771D01*
X125166666Y-63330152D01*
X125214285Y-63282533D01*
X125261904Y-63187295D01*
X125261904Y-63092057D01*
X125214285Y-62996819D01*
X125166666Y-62949200D01*
X125071428Y-62901580D01*
X124833333Y-62901580D01*
X124690476Y-62949200D01*
X124261904Y-63901580D02*
X124261904Y-62901580D01*
X123880952Y-62901580D01*
X123785714Y-62949200D01*
X123738095Y-62996819D01*
X123690476Y-63092057D01*
X123690476Y-63234914D01*
X123738095Y-63330152D01*
X123785714Y-63377771D01*
X123880952Y-63425390D01*
X124261904Y-63425390D01*
X118146057Y-63952380D02*
X118479390Y-63476190D01*
X118717485Y-63952380D02*
X118717485Y-62952380D01*
X118336533Y-62952380D01*
X118241295Y-63000000D01*
X118193676Y-63047619D01*
X118146057Y-63142857D01*
X118146057Y-63285714D01*
X118193676Y-63380952D01*
X118241295Y-63428571D01*
X118336533Y-63476190D01*
X118717485Y-63476190D01*
X117765104Y-63904761D02*
X117622247Y-63952380D01*
X117384152Y-63952380D01*
X117288914Y-63904761D01*
X117241295Y-63857142D01*
X117193676Y-63761904D01*
X117193676Y-63666666D01*
X117241295Y-63571428D01*
X117288914Y-63523809D01*
X117384152Y-63476190D01*
X117574628Y-63428571D01*
X117669866Y-63380952D01*
X117717485Y-63333333D01*
X117765104Y-63238095D01*
X117765104Y-63142857D01*
X117717485Y-63047619D01*
X117669866Y-63000000D01*
X117574628Y-62952380D01*
X117336533Y-62952380D01*
X117193676Y-63000000D01*
X116907961Y-62952380D02*
X116336533Y-62952380D01*
X116622247Y-63952380D02*
X116622247Y-62952380D01*
X115288914Y-63666666D02*
X114812723Y-63666666D01*
X115384152Y-63952380D02*
X115050819Y-62952380D01*
X114717485Y-63952380D01*
X114527009Y-62952380D02*
X113955580Y-62952380D01*
X114241295Y-63952380D02*
X114241295Y-62952380D01*
X113622247Y-63952380D02*
X113622247Y-62952380D01*
X113288914Y-63666666D01*
X112955580Y-62952380D01*
X112955580Y-63952380D01*
X112098438Y-63904761D02*
X112193676Y-63952380D01*
X112384152Y-63952380D01*
X112479390Y-63904761D01*
X112527009Y-63809523D01*
X112527009Y-63428571D01*
X112479390Y-63333333D01*
X112384152Y-63285714D01*
X112193676Y-63285714D01*
X112098438Y-63333333D01*
X112050819Y-63428571D01*
X112050819Y-63523809D01*
X112527009Y-63619047D01*
X111193676Y-63285714D02*
X111193676Y-64095238D01*
X111241295Y-64190476D01*
X111288914Y-64238095D01*
X111384152Y-64285714D01*
X111527009Y-64285714D01*
X111622247Y-64238095D01*
X111193676Y-63904761D02*
X111288914Y-63952380D01*
X111479390Y-63952380D01*
X111574628Y-63904761D01*
X111622247Y-63857142D01*
X111669866Y-63761904D01*
X111669866Y-63476190D01*
X111622247Y-63380952D01*
X111574628Y-63333333D01*
X111479390Y-63285714D01*
X111288914Y-63285714D01*
X111193676Y-63333333D01*
X110288914Y-63952380D02*
X110288914Y-63428571D01*
X110336533Y-63333333D01*
X110431771Y-63285714D01*
X110622247Y-63285714D01*
X110717485Y-63333333D01*
X110288914Y-63904761D02*
X110384152Y-63952380D01*
X110622247Y-63952380D01*
X110717485Y-63904761D01*
X110765104Y-63809523D01*
X110765104Y-63714285D01*
X110717485Y-63619047D01*
X110622247Y-63571428D01*
X110384152Y-63571428D01*
X110288914Y-63523809D01*
X100210761Y-64206380D02*
X100210761Y-63206380D01*
X99829809Y-63206380D01*
X99734571Y-63254000D01*
X99686952Y-63301619D01*
X99639333Y-63396857D01*
X99639333Y-63539714D01*
X99686952Y-63634952D01*
X99734571Y-63682571D01*
X99829809Y-63730190D01*
X100210761Y-63730190D01*
X99306000Y-63206380D02*
X99067904Y-64206380D01*
X98877428Y-63492095D01*
X98686952Y-64206380D01*
X98448857Y-63206380D01*
X98067904Y-64206380D02*
X98067904Y-63206380D01*
X97734571Y-63920666D01*
X97401238Y-63206380D01*
X97401238Y-64206380D01*
X96600971Y-96945676D02*
X96648590Y-97088533D01*
X96696209Y-97136152D01*
X96791447Y-97183771D01*
X96934304Y-97183771D01*
X97029542Y-97136152D01*
X97077161Y-97088533D01*
X97124780Y-96993295D01*
X97124780Y-96612342D01*
X96124780Y-96612342D01*
X96124780Y-96945676D01*
X96172400Y-97040914D01*
X96220019Y-97088533D01*
X96315257Y-97136152D01*
X96410495Y-97136152D01*
X96505733Y-97088533D01*
X96553352Y-97040914D01*
X96600971Y-96945676D01*
X96600971Y-96612342D01*
X96458114Y-97469485D02*
X96458114Y-97850438D01*
X96124780Y-97612342D02*
X96981923Y-97612342D01*
X97077161Y-97659961D01*
X97124780Y-97755200D01*
X97124780Y-97850438D01*
X96458114Y-98040914D02*
X96458114Y-98421866D01*
X96124780Y-98183771D02*
X96981923Y-98183771D01*
X97077161Y-98231390D01*
X97124780Y-98326628D01*
X97124780Y-98421866D01*
X96458114Y-98755200D02*
X97124780Y-98755200D01*
X96553352Y-98755200D02*
X96505733Y-98802819D01*
X96458114Y-98898057D01*
X96458114Y-99040914D01*
X96505733Y-99136152D01*
X96600971Y-99183771D01*
X97124780Y-99183771D01*
X96458114Y-100850438D02*
X97124780Y-100850438D01*
X96077161Y-100612342D02*
X96791447Y-100374247D01*
X96791447Y-100993295D01*
X96550171Y-88919276D02*
X96597790Y-89062133D01*
X96645409Y-89109752D01*
X96740647Y-89157371D01*
X96883504Y-89157371D01*
X96978742Y-89109752D01*
X97026361Y-89062133D01*
X97073980Y-88966895D01*
X97073980Y-88585942D01*
X96073980Y-88585942D01*
X96073980Y-88919276D01*
X96121600Y-89014514D01*
X96169219Y-89062133D01*
X96264457Y-89109752D01*
X96359695Y-89109752D01*
X96454933Y-89062133D01*
X96502552Y-89014514D01*
X96550171Y-88919276D01*
X96550171Y-88585942D01*
X96407314Y-89443085D02*
X96407314Y-89824038D01*
X96073980Y-89585942D02*
X96931123Y-89585942D01*
X97026361Y-89633561D01*
X97073980Y-89728800D01*
X97073980Y-89824038D01*
X96407314Y-90014514D02*
X96407314Y-90395466D01*
X96073980Y-90157371D02*
X96931123Y-90157371D01*
X97026361Y-90204990D01*
X97073980Y-90300228D01*
X97073980Y-90395466D01*
X96407314Y-90728800D02*
X97073980Y-90728800D01*
X96502552Y-90728800D02*
X96454933Y-90776419D01*
X96407314Y-90871657D01*
X96407314Y-91014514D01*
X96454933Y-91109752D01*
X96550171Y-91157371D01*
X97073980Y-91157371D01*
X96073980Y-92300228D02*
X96073980Y-92919276D01*
X96454933Y-92585942D01*
X96454933Y-92728800D01*
X96502552Y-92824038D01*
X96550171Y-92871657D01*
X96645409Y-92919276D01*
X96883504Y-92919276D01*
X96978742Y-92871657D01*
X97026361Y-92824038D01*
X97073980Y-92728800D01*
X97073980Y-92443085D01*
X97026361Y-92347847D01*
X96978742Y-92300228D01*
X96600971Y-80943676D02*
X96648590Y-81086533D01*
X96696209Y-81134152D01*
X96791447Y-81181771D01*
X96934304Y-81181771D01*
X97029542Y-81134152D01*
X97077161Y-81086533D01*
X97124780Y-80991295D01*
X97124780Y-80610342D01*
X96124780Y-80610342D01*
X96124780Y-80943676D01*
X96172400Y-81038914D01*
X96220019Y-81086533D01*
X96315257Y-81134152D01*
X96410495Y-81134152D01*
X96505733Y-81086533D01*
X96553352Y-81038914D01*
X96600971Y-80943676D01*
X96600971Y-80610342D01*
X96458114Y-81467485D02*
X96458114Y-81848438D01*
X96124780Y-81610342D02*
X96981923Y-81610342D01*
X97077161Y-81657961D01*
X97124780Y-81753200D01*
X97124780Y-81848438D01*
X96458114Y-82038914D02*
X96458114Y-82419866D01*
X96124780Y-82181771D02*
X96981923Y-82181771D01*
X97077161Y-82229390D01*
X97124780Y-82324628D01*
X97124780Y-82419866D01*
X96458114Y-82753200D02*
X97124780Y-82753200D01*
X96553352Y-82753200D02*
X96505733Y-82800819D01*
X96458114Y-82896057D01*
X96458114Y-83038914D01*
X96505733Y-83134152D01*
X96600971Y-83181771D01*
X97124780Y-83181771D01*
X96220019Y-84372247D02*
X96172400Y-84419866D01*
X96124780Y-84515104D01*
X96124780Y-84753200D01*
X96172400Y-84848438D01*
X96220019Y-84896057D01*
X96315257Y-84943676D01*
X96410495Y-84943676D01*
X96553352Y-84896057D01*
X97124780Y-84324628D01*
X97124780Y-84943676D01*
X96600971Y-72866476D02*
X96648590Y-73009333D01*
X96696209Y-73056952D01*
X96791447Y-73104571D01*
X96934304Y-73104571D01*
X97029542Y-73056952D01*
X97077161Y-73009333D01*
X97124780Y-72914095D01*
X97124780Y-72533142D01*
X96124780Y-72533142D01*
X96124780Y-72866476D01*
X96172400Y-72961714D01*
X96220019Y-73009333D01*
X96315257Y-73056952D01*
X96410495Y-73056952D01*
X96505733Y-73009333D01*
X96553352Y-72961714D01*
X96600971Y-72866476D01*
X96600971Y-72533142D01*
X96458114Y-73390285D02*
X96458114Y-73771238D01*
X96124780Y-73533142D02*
X96981923Y-73533142D01*
X97077161Y-73580761D01*
X97124780Y-73676000D01*
X97124780Y-73771238D01*
X96458114Y-73961714D02*
X96458114Y-74342666D01*
X96124780Y-74104571D02*
X96981923Y-74104571D01*
X97077161Y-74152190D01*
X97124780Y-74247428D01*
X97124780Y-74342666D01*
X96458114Y-74676000D02*
X97124780Y-74676000D01*
X96553352Y-74676000D02*
X96505733Y-74723619D01*
X96458114Y-74818857D01*
X96458114Y-74961714D01*
X96505733Y-75056952D01*
X96600971Y-75104571D01*
X97124780Y-75104571D01*
X97124780Y-76866476D02*
X97124780Y-76295047D01*
X97124780Y-76580761D02*
X96124780Y-76580761D01*
X96267638Y-76485523D01*
X96362876Y-76390285D01*
X96410495Y-76295047D01*
M02*
